<svg width="29" height="28" viewBox="0 0 29 28" fill="none" xmlns="http://www.w3.org/2000/svg">
<path d="M26.4511 3.33594H2.54876C2.15641 3.33594 1.7891 3.42907 1.45679 3.58258L14.4433 16.1213L17.354 13.4204C17.354 13.4204 17.3542 13.4201 17.3543 13.42C17.3543 13.4199 17.3546 13.4198 17.3546 13.4198L27.5435 3.5828C27.2111 3.42918 26.8436 3.33594 26.4511 3.33594Z" fill="#0A254D"/>
<path d="M28.7448 4.74292L19.1565 14.0001L28.7445 23.2574C28.9034 22.9366 28.9999 22.5819 28.9999 22.2031V5.79686C28.9999 5.41826 28.9037 5.06366 28.7448 4.74292Z" fill="#0A254D"/>
<path d="M0.255449 4.74255C0.096459 5.06341 0 5.41805 0 5.79687V22.2031C0 22.5817 0.0963457 22.9364 0.255223 23.2572L9.84352 14L0.255449 4.74255Z" fill="#0A254D"/>
<path d="M17.9553 15.1601L15.0442 17.8613C14.8782 18.0216 14.6608 18.1017 14.4435 18.1017C14.2262 18.1017 14.0087 18.0216 13.8428 17.8613L11.045 15.16L1.45654 24.4173C1.78891 24.5709 2.15645 24.6641 2.54891 24.6641H26.4513C26.8436 24.6641 27.2109 24.571 27.5432 24.4175L17.9553 15.1601Z" fill="#0A254D"/>
</svg>
