<svg width="24" height="33" viewBox="0 0 24 33" fill="none" xmlns="http://www.w3.org/2000/svg">
<path d="M19.654 3.36704C17.4948 1.21115 14.5666 0 11.5132 0C8.45992 0 5.53164 1.21115 3.37251 3.36704C-0.651874 7.38526 -1.15222 14.9458 2.29069 19.5269C2.29069 19.5269 11.1903 32.6116 11.3488 32.8304C11.3875 32.8829 11.438 32.9257 11.4964 32.9552C11.5547 32.9846 11.6191 33 11.6844 33C11.7498 33 11.8142 32.9846 11.8725 32.9552C11.9308 32.9257 11.9814 32.8829 12.0201 32.8304C12.178 32.5965 20.7261 19.5458 20.7261 19.5458C24.1787 14.9458 23.6784 7.38526 19.654 3.36704ZM11.6187 15.5881C10.7875 15.5881 9.97488 15.3419 9.28372 14.8807C8.59256 14.4196 8.05386 13.7641 7.73576 12.9972C7.41765 12.2303 7.33442 11.3864 7.49659 10.5723C7.65876 9.75811 8.05904 9.01028 8.64683 8.42332C9.23461 7.83635 9.9835 7.43663 10.7988 7.27469C11.6141 7.11274 12.4591 7.19586 13.2271 7.51352C13.9951 7.83118 14.6515 8.36912 15.1133 9.05932C15.5751 9.74951 15.8216 10.561 15.8216 11.391C15.8202 12.5037 15.3769 13.5704 14.589 14.3572C13.8011 15.144 12.733 15.5866 11.6187 15.5881Z" fill="#0A254D"/>
</svg>
