<svg width="44" height="43" viewBox="0 0 44 43" fill="none" xmlns="http://www.w3.org/2000/svg">
<rect x="2" y="2" width="40" height="39" stroke="#FF9781" stroke-width="4"/>
<path d="M22.0111 21.53C23.5485 22.3279 25.2228 22.0066 26.8063 21.2518C29.5507 19.9438 31.2542 17.3436 31.4981 14.5578C31.5208 14.2986 31.3994 14.0476 31.1806 13.9014C28.9267 12.3958 26.0656 12.1045 23.5261 13.1056C23.6113 13.2527 23.6898 13.4011 23.7617 13.5505M22.0111 21.53L22.5081 21.4744C22.4977 21.3814 22.4864 21.2888 22.4741 21.1967M22.0111 21.53C21.9725 21.1843 21.9204 20.8454 21.855 20.5138M22.0111 21.53L22.2415 21.0861C22.3185 21.1261 22.3961 21.1629 22.4741 21.1967M22.4741 21.1967C23.7479 21.7478 25.1556 21.4846 26.5912 20.8004L26.5912 20.8004C29.1729 19.5699 30.7712 17.1266 31 14.5142C31.0065 14.4395 30.9719 14.3635 30.9028 14.3173L31.1799 13.9025L30.9028 14.3173C28.803 12.9146 26.1382 12.6329 23.7617 13.5505M22.4741 21.1967C22.4518 21.0291 22.4263 20.8629 22.3977 20.6983M23.7617 13.5505C23.6066 13.6103 23.4527 13.6753 23.3004 13.7454C24.479 16.1696 23.769 18.8714 21.855 20.5138M23.7617 13.5505C24.9842 16.0897 24.3033 18.908 22.3977 20.6983M22.3977 20.6983C22.3814 20.604 22.364 20.5102 22.3456 20.4169L21.855 20.5138M22.3977 20.6983C22.327 20.7647 22.2547 20.8297 22.1806 20.8933L21.855 20.5138" stroke="#061229" stroke-width="1.00014"/>
<path d="M21.5124 17.8476C20.7071 16.138 19.4089 14.6262 17.5949 13.8459C16.9782 13.5805 16.2529 13.854 15.9779 14.4726L21.5124 17.8476ZM21.5124 17.8476C21.6871 17.5037 21.8081 17.1383 21.868 16.7671L21.5124 17.8476ZM12.7267 10.7509L12.7266 10.7509C12.643 10.7727 12.5831 10.8357 12.5639 10.9094C11.7042 14.2045 13.1548 17.6656 16.094 19.4245L16.0941 19.4245C16.9234 19.9209 17.8398 20.1002 18.7491 19.9316L19.15 19.8572L19.3035 20.2349C19.7703 21.3831 20.0859 22.7289 20.1915 24.2643L20.2254 24.7569L19.7333 24.7971C17.4782 24.9811 15.213 25.4891 12.9618 26.3168C10.9923 27.041 10.3584 28.2302 10.5272 29.1796C10.7039 30.1733 11.8108 31.3055 14.1697 31.7683L14.1697 31.7683C19.1402 32.7438 24.1801 32.7438 29.1505 31.7683L29.1505 31.7683C31.5035 31.3066 32.6134 30.1752 32.7921 29.1807C32.9627 28.2319 32.3322 27.0426 30.3584 26.3168C27.9687 25.438 25.5531 24.9195 23.1576 24.7665C23.1797 25.3928 23.1702 26.0351 23.1283 26.691C23.0849 27.3698 22.4938 27.8721 21.8232 27.8306C21.8231 27.8306 21.8231 27.8306 21.8231 27.8306L21.854 27.3315L12.7267 10.7509ZM12.7267 10.7509C15.321 10.0733 18.1689 10.7772 20.1705 12.7574M12.7267 10.7509L20.1705 12.7574M20.1705 12.7574C21.3743 13.9484 22.1088 15.2756 21.868 16.767L20.1705 12.7574ZM20.6714 26.537L20.6714 26.5371L15.9779 14.4726C15.7008 15.0958 15.9933 15.8148 16.6139 16.0818C17.8926 16.6319 19.1092 17.9648 19.7234 20.0435L19.7303 20.0669L19.7395 20.0895C20.553 22.0978 20.7969 24.5739 20.6714 26.537Z" stroke="#061229" stroke-width="1.00014"/>
</svg>
