<svg width="0" height="0" class="hidden">
  <symbol viewBox="0 0 24 24" fill="none"
    xmlns="http://www.w3.org/2000/svg" id="bedroom">
    <path d="M18 11.25H4.5V6.375C4.50148 5.87818 4.6995 5.40212 5.05081 5.05081C5.40212 4.6995 5.87818 4.50148 6.375 4.5H17.625C18.1218 4.50148 18.5979 4.6995 18.9492 5.05081C19.3005 5.40212 19.4985 5.87818 19.5 6.375V11.25H18Z" stroke="#373737" stroke-width="1.5" stroke-linecap="round" stroke-linejoin="round"/>
    <path d="M2.25 19.5V14.25C2.25235 13.4551 2.56917 12.6934 3.13128 12.1313C3.69338 11.5692 4.45507 11.2523 5.25 11.25H18.75C19.5449 11.2523 20.3066 11.5692 20.8687 12.1313C21.4308 12.6934 21.7477 13.4551 21.75 14.25V19.5" stroke="#373737" stroke-width="1.5" stroke-linecap="round" stroke-linejoin="round"/>
    <path d="M2.25 19.5V19.125C2.25087 18.8269 2.36967 18.5413 2.58046 18.3305C2.79125 18.1197 3.0769 18.0009 3.375 18H20.625C20.9231 18.0009 21.2087 18.1197 21.4195 18.3305C21.6303 18.5413 21.7491 18.8269 21.75 19.125V19.5" stroke="#373737" stroke-width="1.5" stroke-linecap="round" stroke-linejoin="round"/>
    <path d="M5.25 11.25V10.5C5.25111 10.1025 5.40951 9.72163 5.69057 9.44057C5.97163 9.15951 6.35252 9.00111 6.75 9H10.5C10.8975 9.00111 11.2784 9.15951 11.5594 9.44057C11.8405 9.72163 11.9989 10.1025 12 10.5V11.25" stroke="#373737" stroke-linecap="round" stroke-linejoin="round"/>
    <path d="M12 11.25V10.5C12.0011 10.1025 12.1595 9.72163 12.4406 9.44057C12.7216 9.15951 13.1025 9.00111 13.5 9H17.25C17.6475 9.00111 18.0284 9.15951 18.3094 9.44057C18.5905 9.72163 18.7489 10.1025 18.75 10.5V11.25" stroke="#373737" stroke-linecap="round" stroke-linejoin="round"/>
  </symbol>

  <symbol viewBox="0 0 20 19" fill="none"
    xmlns="http://www.w3.org/2000/svg" id="bathroom">
    <path d="M19 7H5V4C5 2.897 5.897 2 7 2C8.103 2 9 2.897 9 4H11C11 1.794 9.206 0 7 0C4.794 0 3 1.794 3 4V7H1C0.734784 7 0.48043 7.10536 0.292893 7.29289C0.105357 7.48043 0 7.73478 0 8V10C0 12.606 1.674 14.823 4 15.65V19H6V16H14V19H16V15.65C18.326 14.823 20 12.606 20 10V8C20 7.73478 19.8946 7.48043 19.7071 7.29289C19.5196 7.10536 19.2652 7 19 7ZM18 10C18 12.206 16.206 14 14 14H6C3.794 14 2 12.206 2 10V9H18V10Z" fill="#545454"/>
  </symbol>
  <symbol viewBox="0 0 23 20" fill="none"
    xmlns="http://www.w3.org/2000/svg" id="checkbox-mark-bold">
    <path d="M21.5913 0.341875C21.4274 0.212136 21.2395 0.116134 21.0383 0.0594102C20.8371 0.00268602 20.6267 -0.0136373 20.4192 0.0113818C20.2117 0.0364009 20.0112 0.102267 19.8293 0.20518C19.6474 0.308093 19.4876 0.446014 19.3593 0.610985L8.27831 14.8579L2.84864 8.24102C2.72128 8.07149 2.56116 7.92927 2.37778 7.82281C2.1944 7.71635 1.9915 7.64781 1.78113 7.62127C1.57075 7.59473 1.35719 7.61073 1.15311 7.66831C0.94904 7.72589 0.758615 7.82389 0.593141 7.95648C0.427667 8.08907 0.290518 8.25356 0.189834 8.44017C0.0891508 8.62678 0.0269852 8.83172 0.00702743 9.04283C-0.0129303 9.25393 0.00972693 9.46689 0.0736537 9.66906C0.13758 9.87124 0.241474 10.0585 0.379167 10.2198L6.98026 18.4197C7.12925 18.6033 7.31749 18.7513 7.53116 18.8526C7.74483 18.954 7.9785 19.0062 8.21499 19.0054C8.46602 19.0166 8.71611 18.9679 8.94458 18.8633C9.17305 18.7587 9.37334 18.6012 9.52888 18.4038L21.9237 2.5739C22.0501 2.40614 22.1418 2.21492 22.1936 2.01136C22.2453 1.8078 22.256 1.59599 22.2251 1.38825C22.1941 1.18052 22.1221 0.981016 22.0133 0.80137C21.9045 0.621724 21.7611 0.465526 21.5913 0.341875Z" fill="#08AE4A"/>
  </symbol>

  <symbol viewBox="0 0 24 17" fill="none"
    xmlns="http://www.w3.org/2000/svg" id="checkbox-mark">
    <path fill-rule="evenodd" clip-rule="evenodd" d="M22.708 0.307351C22.8012 0.400865 22.8751 0.511955 22.9255 0.634259C22.9759 0.756563 23.0018 0.887677 23.0018 1.02009C23.0018 1.15251 22.9759 1.28362 22.9255 1.40593C22.8751 1.52823 22.8012 1.63932 22.708 1.73283L8.70804 15.8266C8.61515 15.9203 8.5048 15.9947 8.38331 16.0455C8.26182 16.0962 8.13158 16.1223 8.00004 16.1223C7.86851 16.1223 7.73827 16.0962 7.61678 16.0455C7.49529 15.9947 7.38493 15.9203 7.29204 15.8266L1.29204 9.7864C1.19907 9.69281 1.12531 9.58169 1.075 9.4594C1.02468 9.3371 0.998779 9.20603 0.998779 9.07366C0.998779 8.94129 1.02468 8.81022 1.075 8.68793C1.12531 8.56564 1.19907 8.45452 1.29204 8.36092C1.38502 8.26732 1.4954 8.19308 1.61688 8.14242C1.73835 8.09177 1.86856 8.0657 2.00004 8.0657C2.13153 8.0657 2.26173 8.09177 2.38321 8.14242C2.50469 8.19308 2.61507 8.26732 2.70804 8.36092L8.00004 13.6904L21.292 0.307351C21.3849 0.213601 21.4953 0.139221 21.6168 0.0884706C21.7383 0.0377202 21.8685 0.0115967 22 0.0115967C22.1316 0.0115967 22.2618 0.0377202 22.3833 0.0884706C22.5048 0.139221 22.6152 0.213601 22.708 0.307351Z" fill="#08AE4A"/>
  </symbol>
  <symbol viewBox="0 0 17 10" fill="none"
    xmlns="http://www.w3.org/2000/svg" id="menu_hamburger">
    <path d="M16 5H1m15-4H1m15 8H1" stroke="#171A27" stroke-width="2" stroke-linecap="round" stroke-linejoin="round"></path>
  </symbol>
  <symbol viewBox="0 0 11 20"
    xmlns="http://www.w3.org/2000/svg" id="icon-facebook">
    <path d="M11 3.202H9.006c-1.563 0-1.866.677-1.866 1.67v2.19h3.728l-.001 3.429H7.14v8.799H3.251v-8.8H0V7.063h3.251v-2.53C3.251 1.599 5.22 0 8.094 0L11 .004v3.198z"></path>
  </symbol>
  <symbol viewBox="0 0 15 15"
    xmlns="http://www.w3.org/2000/svg" id="icon-instagram">
    <path d="M10.94 0H4.06A4.065 4.065 0 0 0 0 4.06v6.88A4.065 4.065 0 0 0 4.06 15h6.88A4.065 4.065 0 0 0 15 10.94V4.06A4.065 4.065 0 0 0 10.94 0zM7.5 11.601A4.106 4.106 0 0 1 3.399 7.5 4.106 4.106 0 0 1 7.5 3.399 4.106 4.106 0 0 1 11.601 7.5 4.106 4.106 0 0 1 7.5 11.601zm4.2-7.235a1.213 1.213 0 0 1 0-2.424c.668 0 1.212.544 1.212 1.212 0 .668-.544 1.212-1.213 1.212z"></path>
  </symbol>
  <symbol viewBox="0 0 19 20"
    xmlns="http://www.w3.org/2000/svg" id="icon-linkedin">
    <path d="M2.284 0C1.022 0 0 1.04 0 2.32c0 1.282 1.021 2.323 2.284 2.323 1.259 0 2.282-1.04 2.282-2.322C4.566 1.04 3.543 0 2.284 0zm1.968 6.403H.314v12.883h3.938V6.403zm10.025-.32c-1.916 0-3.2 1.068-3.726 2.08h-.053v-1.76H6.722v12.883h3.934v-6.373c0-1.68.314-3.308 2.363-3.308 2.02 0 2.046 1.922 2.046 3.416v6.264H19V12.22c0-3.469-.736-6.137-4.723-6.137z"></path>
  </symbol>
  <symbol viewBox="0 0 20 17"
    xmlns="http://www.w3.org/2000/svg" id="icon-twitter">
    <path d="M19.977 1.957a.098.098 0 0 0-.117-.027 7.95 7.95 0 0 1-1.875.573A4.192 4.192 0 0 0 19.45.43a.1.1 0 0 0-.033-.109.099.099 0 0 0-.113-.007 7.978 7.978 0 0 1-2.495.97 4.164 4.164 0 0 0-3-1.284c-2.294 0-4.161 1.883-4.161 4.197 0 .28.027.557.08.826A11.445 11.445 0 0 1 1.555.787.099.099 0 0 0 1.392.8 4.221 4.221 0 0 0 .83 2.91c0 1.286.58 2.49 1.566 3.283A3.955 3.955 0 0 1 .943 5.72a.098.098 0 0 0-.097 0 .1.1 0 0 0-.05.085v.054a4.207 4.207 0 0 0 2.925 4.01 3.964 3.964 0 0 1-1.384-.021.1.1 0 0 0-.113.129 4.168 4.168 0 0 0 3.613 2.9 7.954 7.954 0 0 1-4.769 1.568c-.32 0-.641-.02-.957-.057a.1.1 0 0 0-.105.066.1.1 0 0 0 .04.118 11.542 11.542 0 0 0 6.28 1.857c7.298 0 11.659-5.978 11.659-11.757 0-.161-.003-.321-.01-.48a8.34 8.34 0 0 0 2.008-2.115.1.1 0 0 0-.006-.12z"></path>
  </symbol>
  <symbol viewBox="0 0 23 17"
    xmlns="http://www.w3.org/2000/svg" id="icon-youtube">
    <path d="M21.76 2.595c-.27-1.23-1.234-2.139-2.394-2.274C16.621 0 13.841-.001 11.075 0 8.308-.002 5.528 0 2.783.32 1.623.456.66 1.364.39 2.595.004 4.348 0 6.262 0 8.066c0 1.805 0 3.718.386 5.471.27 1.23 1.233 2.14 2.393 2.275 2.745.32 5.525.322 8.292.32 2.767.002 5.546 0 8.291-.32 1.159-.136 2.122-1.044 2.393-2.275.387-1.753.388-3.666.388-5.47 0-1.805.003-3.719-.383-5.472zM8.214 11.66V4.005l7.04 3.839-7.04 3.815z"></path>
  </symbol>
  <symbol viewBox="0 0 40 71" fill="none"
    xmlns="http://www.w3.org/2000/svg" id="arrow-left">
    <path d="M40 10.143L15 35.5l25 25.357L35 71 0 35.5 35 0l5 10.143z" fill="#fff"></path>
  </symbol>
  <symbol viewBox="0 0 40 71" fill="none"
    xmlns="http://www.w3.org/2000/svg" id="arrow-right">
    <path d="M0 10.143L25 35.5 0 60.857 5 71l35-35.5L5 0 0 10.143z" fill="#fff"></path>
  </symbol>
  <symbol viewBox="0 0 32 32" fill="none"
    xmlns="http://www.w3.org/2000/svg" id="box-check-icon">
    <path d="M26.53 10.457a.77.77 0 0 0-.77.77V30.46H1.54V6.24h18.832a.77.77 0 0 0 0-1.54H.77a.77.77 0 0 0-.77.77v25.76c0 .425.345.77.77.77h25.76a.77.77 0 0 0 .77-.77V11.226a.77.77 0 0 0-.77-.77z" fill="#0A254C"></path>
    <path d="M31.774.226a.77.77 0 0 0-1.088 0l-20.37 20.368-5.053-5.054a.77.77 0 1 0-1.089 1.089l5.599 5.598a.767.767 0 0 0 1.088 0L31.774 1.314a.768.768 0 0 0 0-1.088z" fill="#ED7161"></path>
  </symbol>
  <symbol viewBox="0 0 70 70" fill="none"
    xmlns="http://www.w3.org/2000/svg" id="basketball-icon">
    <path stroke="#FF9781" stroke-width="5" d="M2.5 2.5h65v65h-65z"></path>
    <path d="M35 15c-11.046 0-20 8.954-20 20s8.954 20 20 20 20-8.954 20-20c-.012-11.04-8.96-19.988-20-20zm17.84 14.504c-2.258-.53-4.58-.74-6.896-.627a13.08 13.08 0 0 1 2.477-6.831 18.675 18.675 0 0 1 4.419 7.458zm-5.388-8.396a14.545 14.545 0 0 0-2.82 7.839c-2.14.164-4.265.481-6.36.95a33.787 33.787 0 0 0-5.21-13.463c.644-.067 1.29-.1 1.938-.1a18.592 18.592 0 0 1 12.452 4.774zm-14.02 32.488a18.531 18.531 0 0 1-8.346-2.79c5.174-6.763 7.564-12.74 7.114-17.793a68.702 68.702 0 0 1 4.95-1.449c.689 5.981-.04 13.348-3.718 22.032zm-1.437-21.972c-.047-.233-.09-.467-.149-.695-1.338-5.148-5.652-8.157-9.29-9.827a18.617 18.617 0 0 1 9.04-4.452 32.347 32.347 0 0 1 5.37 13.55 65.589 65.589 0 0 0-4.971 1.424zm-10.467-9.521c3.46 1.5 7.765 4.293 9.03 9.161.067.26.12.525.17.791a105.726 105.726 0 0 0-14.1 6.204 18.582 18.582 0 0 1 4.9-16.157zM16.911 39.61a108.264 108.264 0 0 1 13.983-6.15c.289 4.66-2.028 10.229-6.912 16.594a18.717 18.717 0 0 1-7.071-10.444zM35 53.667c-.052 0-.103-.004-.155-.004 3.647-8.81 4.346-16.308 3.617-22.412a43.891 43.891 0 0 1 6.193-.971c.253 3.667 2.15 7.95 7.291 12.533A18.689 18.689 0 0 1 35 53.667zM52.493 41.51c-4.514-4.133-6.294-7.956-6.533-11.308 2.45-.137 4.907.132 7.27.798a18.615 18.615 0 0 1-.733 10.513l-.004-.003z" fill="#171A27"></path>
    <path d="M19.247 32.8a.667.667 0 0 0 .667-.667 10.375 10.375 0 0 1 2.667-6.69.667.667 0 1 0-.944-.942 11.554 11.554 0 0 0-3.056 7.632c0 .368.298.667.666.667zm5.012 14.324a.666.666 0 0 0 .298-1.267 6.775 6.775 0 0 1-3.224-4.546.667.667 0 0 0-1.308.261 8.073 8.073 0 0 0 3.934 5.478.673.673 0 0 0 .3.074zm6.656 2.28l-2.148-.715a.668.668 0 1 0-.422 1.266l2.148.712a.668.668 0 0 0 .422-1.267v.005z" fill="#171A27"></path>
  </symbol>

  <symbol viewBox="0 0 70 70" fill="none"
    xmlns="http://www.w3.org/2000/svg" id="car-washing-icon">
    <path stroke="#FF9781" stroke-width="5" d="M2.5 2.5h65v65h-65z"></path>
    <path d="M21.125 41.727c-.473 0-.935.137-1.329.395-.393.258-.7.625-.881 1.053a2.31 2.31 0 0 0 .519 2.558c.334.328.76.552 1.225.642.464.09.945.044 1.382-.133.437-.178.81-.479 1.074-.865a2.314 2.314 0 0 0-.299-2.963 2.419 2.419 0 0 0-1.69-.687zm0 3.476c-.227 0-.45-.066-.64-.19s-.337-.3-.424-.507a1.11 1.11 0 0 1 .25-1.231 1.173 1.173 0 0 1 1.255-.245c.21.085.39.23.517.416a1.114 1.114 0 0 1-.144 1.426c-.215.212-.508.33-.814.331zm27.75-3.476c-.473 0-.935.137-1.329.395-.393.258-.7.625-.881 1.053a2.31 2.31 0 0 0 .519 2.558c.334.328.76.552 1.225.642.464.09.945.044 1.382-.133.437-.178.81-.479 1.074-.865.262-.386.403-.84.403-1.303 0-.623-.253-1.22-.702-1.66a2.419 2.419 0 0 0-1.69-.687zm0 3.476c-.227 0-.45-.066-.64-.19s-.337-.3-.424-.507a1.11 1.11 0 0 1 .25-1.231 1.173 1.173 0 0 1 1.255-.245c.21.085.39.23.517.416a1.114 1.114 0 0 1-.144 1.426c-.215.212-.508.33-.814.331z" fill="#171A27"></path>
    <path d="M55.83 37.657a.607.607 0 0 0 .17-.45 6.101 6.101 0 0 0-.305-1.504c-.363-1.068-1.506-1.758-2.914-1.758-.846 0-2.38-.005-3.08-.008l-1.383-2.49c-.97-1.706-2.383-3.652-4.736-3.652h-17.02c-1.917 0-3.618 1.291-4.792 3.655l-1.444 2.505c-.698-.002-2.25-.007-3.107-.007-1.407 0-2.551.688-2.914 1.756a6.1 6.1 0 0 0-.304 1.504.634.634 0 0 0 .374.612c.077.035.16.054.245.057h.001l2.15-.018c-.937.7-1.54 1.861-1.54 3.211 0 .024.002.049.005.073l.995 7.74c.014.53.214 1.04.566 1.442a2.36 2.36 0 0 0 1.368.767v2.48a1.415 1.415 0 0 0 .439 1.015 1.47 1.47 0 0 0 1.043.413h2.596c.813 0 1.504-.63 1.504-1.428v-2.483h22.507v2.483c0 .797.69 1.428 1.504 1.428h2.596a1.493 1.493 0 0 0 1.043-.413 1.438 1.438 0 0 0 .439-1.016v-2.487a2.339 2.339 0 0 0 1.342-.772c.344-.401.537-.906.547-1.43l1.04-7.74a.591.591 0 0 0 .005-.08c0-1.334-.633-2.513-1.596-3.216h2.206a.63.63 0 0 0 .45-.19zM22.86 32.03c.006-.011.012-.016.018-.027.553-1.12 1.768-2.991 3.684-2.991h17.02c1.35 0 2.442.906 3.65 3.03l2.844 5.14H47.02a4.06 4.06 0 0 0-1.373-2.564 4.21 4.21 0 0 0-2.76-1.027c-1.018 0-2 .365-2.761 1.027a4.06 4.06 0 0 0-1.373 2.564H19.9l2.96-5.152zm22.906 5.152h-5.76a2.856 2.856 0 0 1 1-1.702 2.958 2.958 0 0 1 1.88-.672c.688 0 1.355.238 1.881.672.527.435.88 1.037 1 1.702zm-30.432-.554a5.01 5.01 0 0 1 .148-.54c.188-.554.886-.926 1.737-.926l2.408.003-.84 1.458-3.453.005zm7.172 16.944c0 .126-.134.211-.263.211h-2.596a.23.23 0 0 1-.22-.126.218.218 0 0 1-.022-.085v-2.483h3.101v2.483zm28.09 0a.218.218 0 0 1-.076.155.225.225 0 0 1-.167.056h-2.596c-.13 0-.263-.085-.263-.212V51.09h3.101v2.483zm2.932-12.544l-1.042 7.732a.353.353 0 0 0-.006.062 1.037 1.037 0 0 1-.32.747 1.077 1.077 0 0 1-.769.303H18.565a1.093 1.093 0 0 1-.768-.303 1.055 1.055 0 0 1-.322-.748.459.459 0 0 0-.005-.067l-.998-7.733c.015-1.276.855-2.572 2.26-2.643.034.01.07.017.106.02h32.257c.006 0 .011-.007.017-.007 1.321 0 2.398 1.178 2.416 2.637zm-2.337-4.398l-.816-1.473c.766.002 1.776.005 2.406.005.85 0 1.549.372 1.737.926.06.178.109.358.148.541l-3.475.001z" fill="#171A27"></path>
    <path d="M26.794 45.352h16.413a.624.624 0 0 0 .504-.25.599.599 0 0 0 .083-.55l-.566-1.632c-.389-1.121-1.639-2-2.847-2H29.575c-1.21 0-2.454.885-2.83 2.014l-.54 1.627a.592.592 0 0 0 .088.544.614.614 0 0 0 .5.247zm1.13-2.043c.21-.626.98-1.173 1.651-1.173h10.806c.674 0 1.456.548 1.673 1.174l.287.825H27.649l.276-.826zm17.449 2.999H25.13a.627.627 0 0 0-.439.179.602.602 0 0 0 0 .86.627.627 0 0 0 .439.178h20.243a.627.627 0 0 0 .439-.178.603.603 0 0 0 0-.86.627.627 0 0 0-.439-.179zm-9.487-24.673a.63.63 0 0 0-.535.301l-1.193 1.999a1.937 1.937 0 0 0-.01 1.97c.175.3.429.55.734.723a2.034 2.034 0 0 0 2.009 0c.305-.173.558-.423.733-.723a1.937 1.937 0 0 0-.01-1.97l-1.193-1.999a.614.614 0 0 0-.535-.3zm.54 3.822a.77.77 0 0 1-1.289-.387.736.736 0 0 1 .091-.52l.658-1.102.658 1.102a.737.737 0 0 1-.118.907zm-7.131-3.822a.63.63 0 0 0-.535.301l-1.194 1.999a1.937 1.937 0 0 0-.01 1.97c.176.3.43.55.735.723a2.033 2.033 0 0 0 2.008 0c.306-.173.559-.423.734-.723a1.937 1.937 0 0 0-.01-1.97l-1.193-1.999a.615.615 0 0 0-.535-.3zm.54 3.822a.77.77 0 0 1-1.289-.386.736.736 0 0 1 .09-.521l.66-1.102.657 1.102a.737.737 0 0 1-.118.907zm11.226.861a2.03 2.03 0 0 0 2.642.166 1.96 1.96 0 0 0 .742-1.181c.093-.47.008-.956-.238-1.368l-1.194-1.999a.615.615 0 0 0-.535-.3.63.63 0 0 0-.535.3l-1.194 1.999a1.935 1.935 0 0 0 .312 2.383zm.758-1.768l.659-1.102.658 1.102a.737.737 0 0 1-.276 1.026.774.774 0 0 1-1.044-.276.737.737 0 0 1 .003-.75zM32.82 15.3a.614.614 0 0 0-.535-.3.63.63 0 0 0-.535.3l-1.193 2a1.935 1.935 0 0 0-.01 1.97c.175.3.429.55.734.723a2.033 2.033 0 0 0 2.009 0c.305-.173.558-.423.733-.723a1.936 1.936 0 0 0-.009-1.97l-1.194-2zm.005 3.522a.77.77 0 0 1-1.006.063.736.736 0 0 1-.192-.97l.658-1.103.659 1.102a.736.736 0 0 1-.12.908zm7.198-3.522a.614.614 0 0 0-.536-.3.63.63 0 0 0-.535.3l-1.193 2a1.937 1.937 0 0 0-.01 1.97c.176.3.429.55.734.723a2.033 2.033 0 0 0 2.009 0c.305-.173.558-.423.734-.723a1.937 1.937 0 0 0-.01-1.97l-1.193-2zm.004 3.522a.77.77 0 0 1-1.006.063.736.736 0 0 1-.192-.97l.658-1.103.659 1.102a.737.737 0 0 1-.12.908z" fill="#171A27"></path>
  </symbol>
  <symbol viewBox="0 0 13 10" fill="none"
    xmlns="http://www.w3.org/2000/svg" id="check-mark">
    <path d="M12.896.1a.367.367 0 0 0-.505 0l-9.44 9.072L.61 6.922a.367.367 0 0 0-.505 0 .333.333 0 0 0 0 .484L2.7 9.9c.07.067.16.1.252.1a.363.363 0 0 0 .253-.1L12.896.585a.333.333 0 0 0 0-.485z" fill="#0A254D"></path>
  </symbol>
  <symbol viewBox="0 0 64 64" fill="none"
    xmlns="http://www.w3.org/2000/svg" id="currency-icon">
    <path fill-rule="evenodd" clip-rule="evenodd" d="M41 9H5v50h50V34h5v30H0V4h41v5z" fill="#FF9781"></path>
    <path d="M63.04 19.884h-3.192V24h-4.424v-4.116H44.868v-3.052L54.108 4.4h4.76L50.3 16.188h5.264V12.52h4.284v3.668h3.192v3.696z" fill="#FF9781"></path>
    <path d="M36.586 38.32c0 .85-.225 1.63-.676 2.34-.433.693-1.1 1.265-2.002 1.716-.901.45-2.02.702-3.354.754v2.99h-.962v-2.99a10.78 10.78 0 0 1-3.588-.754c-1.11-.45-1.976-1.023-2.6-1.716l.598-.988c.607.624 1.413 1.153 2.418 1.586a9.381 9.381 0 0 0 3.172.702v-7.54c-1.196-.295-2.184-.607-2.964-.936a4.944 4.944 0 0 1-1.95-1.456c-.52-.641-.78-1.482-.78-2.522 0-1.3.477-2.4 1.43-3.302.97-.901 2.392-1.404 4.264-1.508V21.68h.962v2.99c.988.035 1.942.2 2.86.494.936.277 1.742.659 2.418 1.144l-.494 1.066a8.098 8.098 0 0 0-2.314-1.092 9.633 9.633 0 0 0-2.47-.442v7.54c1.318.33 2.375.65 3.172.962a5.095 5.095 0 0 1 2.028 1.43c.555.624.832 1.473.832 2.548zm-11.362-8.84c0 1.057.373 1.846 1.118 2.366.745.503 1.829.936 3.25 1.3v-7.28c-1.438.104-2.53.494-3.276 1.17-.728.659-1.092 1.473-1.092 2.444zm5.33 12.48c1.56-.07 2.73-.433 3.51-1.092.797-.659 1.196-1.482 1.196-2.47 0-.763-.208-1.378-.624-1.846a4.054 4.054 0 0 0-1.586-1.118c-.641-.26-1.473-.52-2.496-.78v7.306z" fill="#061229"></path>
  </symbol>
  <symbol viewBox="0 0 70 70" fill="none"
    xmlns="http://www.w3.org/2000/svg" id="delivery-icon">
    <path stroke="#FF9781" stroke-width="5" d="M2.5 2.5h65v65h-65z"></path>
    <path d="M52.2 33.598l-1.036-4.093a.62.62 0 0 0 .496-.605v-.66c0-1.434-1.18-2.6-2.63-2.6h-4.72v-1.36c0-.705-.58-1.279-1.294-1.279h-24.05c-.714 0-1.295.574-1.295 1.279V35.5c0 .342.28.619.627.619a.623.623 0 0 0 .626-.619V24.28a.04.04 0 0 1 .042-.041h24.05a.04.04 0 0 1 .041.04V35.5c0 .342.28.62.627.62a.623.623 0 0 0 .626-.62v-.7h7.393c.909 0 1.68.59 1.946 1.403H51.7a.623.623 0 0 0-.626.618v1.32c0 1.07.88 1.94 1.962 1.94h.71v2.722H52.11a3.97 3.97 0 0 0-3.749-2.64 3.97 3.97 0 0 0-3.748 2.64h-.302V38.14a.623.623 0 0 0-.626-.618.623.623 0 0 0-.627.618v4.662H30.064a3.97 3.97 0 0 0-3.749-2.64 3.97 3.97 0 0 0-3.748 2.64h-3.6a.041.041 0 0 1-.042-.041v-1.362h2.714a.623.623 0 0 0 .626-.618.623.623 0 0 0-.626-.62h-6.013a.623.623 0 0 0-.626.62c0 .341.28.618.626.618h2.046v1.362c0 .705.58 1.279 1.295 1.279h3.383l-.001.04c0 2.162 1.78 3.92 3.966 3.92 2.187 0 3.967-1.758 3.967-3.92l-.001-.04h14.115l-.002.04c0 2.162 1.78 3.92 3.967 3.92 2.187 0 3.967-1.758 3.967-3.92l-.001-.04h2.047a.623.623 0 0 0 .626-.62v-6.6c0-1.63-1.217-2.983-2.8-3.222zm-7.889-6.72h4.718c.76 0 1.378.61 1.378 1.361v.042h-6.096v-1.403zm0 6.683v-4.043h5.565l1.023 4.043h-6.588zM26.315 46.763c-1.496 0-2.714-1.203-2.714-2.682 0-1.479 1.218-2.681 2.714-2.681 1.497 0 2.714 1.202 2.714 2.681s-1.217 2.682-2.714 2.682zm22.046 0c-1.496 0-2.714-1.203-2.714-2.682 0-1.479 1.218-2.681 2.714-2.681 1.497 0 2.714 1.202 2.714 2.681s-1.217 2.682-2.714 2.682zm5.387-7.921h-.71a.706.706 0 0 1-.71-.702v-.701h1.42v1.403z" fill="#171A27"></path>
    <path d="M36.779 29.122a.632.632 0 0 0-.886 0l-5.57 5.503-2.897-2.863a.632.632 0 0 0-.885 0 .614.614 0 0 0 0 .875l3.34 3.3a.628.628 0 0 0 .886 0l6.012-5.94a.614.614 0 0 0 0-.875zm-11.799 8.4h-8.018a.623.623 0 0 0-.626.618c0 .342.28.62.627.62h8.016a.623.623 0 0 0 .627-.62.623.623 0 0 0-.627-.618z" fill="#171A27"></path>
  </symbol>
  <symbol viewBox="0 0 70 70" fill="none"
    xmlns="http://www.w3.org/2000/svg" id="fotball-fields-icon">
    <path stroke="#FF9781" stroke-width="5" d="M2.5 2.5h65v65h-65z"></path>
    <path d="M58.474 15H19.86a.755.755 0 0 0-.747.763c0 .422.335.764.747.764h14.893v9.335c-4.6.39-8.226 4.339-8.226 9.138 0 4.799 3.626 8.748 8.226 9.138v9.335H12.526a1.044 1.044 0 0 1-1.032-1.054V47.57h7.35c1.015 0 1.84-.843 1.84-1.879V24.31c0-1.037-.825-1.88-1.84-1.88h-7.35v-4.848c0-.581.463-1.054 1.032-1.054h4.744a.755.755 0 0 0 .747-.764.755.755 0 0 0-.747-.763h-4.744C11.133 15 10 16.158 10 17.58v34.84c0 1.422 1.133 2.58 2.526 2.58h45.948C59.867 55 61 53.842 61 52.419V17.58c0-1.422-1.133-2.58-2.526-2.58zm-46.98 8.956h7.35a.35.35 0 0 1 .346.353V45.69a.349.349 0 0 1-.345.352h-7.35V23.956zm23.259 9.596A1.64 1.64 0 0 0 33.898 35c0 .628.347 1.173.855 1.447v6.158C30.978 42.22 28.02 38.957 28.02 35c0-3.957 2.957-7.22 6.732-7.605v6.157zm1.494 2.895A1.64 1.64 0 0 0 37.102 35c0-.629-.347-1.173-.855-1.448v-6.157c3.775.384 6.732 3.648 6.732 7.605 0 3.957-2.957 7.22-6.732 7.605v-6.158zM59.506 22.43h-7.351c-1.014 0-1.839.843-1.839 1.88v2.038c0 .422.334.763.747.763a.755.755 0 0 0 .747-.763V24.31a.35.35 0 0 1 .345-.353h7.35v22.087h-7.35a.349.349 0 0 1-.345-.352V28.994a.755.755 0 0 0-.747-.764.755.755 0 0 0-.747.764V45.69c0 1.036.825 1.88 1.839 1.88h7.35v4.848c0 .581-.462 1.054-1.03 1.054H36.246v-9.335c4.6-.39 8.226-4.339 8.226-9.138 0-4.8-3.626-8.749-8.226-9.138v-9.335h22.227c.569 0 1.032.473 1.032 1.054v4.849z" fill="#171A27"></path>
  </symbol>
  <symbol viewBox="0 0 24 30" fill="none"
    xmlns="http://www.w3.org/2000/svg" id="guarantee-icon">
    <path d="M23.695 6.074L12.11.066a.59.59 0 0 0-.549.003L.3 6.077a.56.56 0 0 0-.3.493v7.848c.007 6.451 3.934 12.288 10.006 14.872l1.564.663a.59.59 0 0 0 .458 0l1.762-.74C19.975 26.685 24 20.793 24 14.263V6.57a.56.56 0 0 0-.305-.496zm-.848 8.188c-.002 6.08-3.75 11.566-9.508 13.919l-.004.002-1.534.644-1.333-.566c-5.653-2.406-9.309-7.838-9.315-13.843V6.902L11.843 1.2l11.004 5.707v7.356z" fill="#061229"></path>
    <path d="M7.589 14.054a.588.588 0 0 0-.813-.063.55.55 0 0 0-.065.792l3.047 3.472c.203.232.56.264.802.071l7.095-5.618a.551.551 0 0 0 .083-.79.588.588 0 0 0-.811-.081l-6.658 5.272-2.68-3.055z" fill="#061229"></path>
  </symbol>
  <symbol viewBox="0 0 70 70" fill="none"
    xmlns="http://www.w3.org/2000/svg" id="gyms-icon">
    <path stroke="#FF9781" stroke-width="5" d="M2.5 2.5h65v65h-65z"></path>
    <path d="M49.317 18.826c-.756-.266-1.49-.195-2.017.194l-.79.585-.58-.784c-1.04-1.409-2.884-1.819-4.109-.914l-1.043.771-1.069-1.447c-.503-.681-1.23-1.17-1.995-1.344a2.478 2.478 0 0 0-3.056 2.257c-.058.783.196 1.623.7 2.304l5.015 6.788-14.146 10.452-5.015-6.789c-.504-.68-1.23-1.17-1.996-1.344a2.478 2.478 0 0 0-3.055 2.257c-.06.783.195 1.622.698 2.303l1.07 1.447-1.17.864c-.55.407-.89 1.035-.959 1.77-.067.745.169 1.544.645 2.189l.685.927-.784.579c-.528.39-.813 1.075-.781 1.878.031.761.334 1.568.853 2.272l2.89 3.91c.519.703 1.202 1.23 1.92 1.482.759.267 1.497.196 2.025-.195l.784-.578.684.926c.477.645 1.171 1.105 1.906 1.26.72.152 1.42.01 1.97-.395l1.17-.865 1.07 1.447c.503.681 1.23 1.17 1.995 1.344.76.172 1.496.033 2.072-.392.576-.426.925-1.088.983-1.866.06-.782-.195-1.621-.698-2.302l-5.015-6.788 14.145-10.452 5.016 6.789c.503.68 1.23 1.17 1.995 1.343.76.172 1.497.033 2.072-.392.576-.425.925-1.088.984-1.865.058-.782-.196-1.622-.699-2.302l-1.069-1.447 1.043-.77c1.225-.905 1.375-2.788.334-4.197l-.579-.784.791-.584c.526-.389.81-1.07.779-1.87-.03-.76-.332-1.563-.85-2.263l-2.905-3.933c-.518-.7-1.198-1.224-1.914-1.476zm-27.05 31.077c-.208.153-.504.174-.833.058-.375-.131-.753-.428-1.039-.814l-2.888-3.91c-.286-.386-.458-.835-.474-1.232-.014-.349.093-.626.3-.78l.784-.578 4.933 6.677-.784.579zm5.344 1.212a1.22 1.22 0 0 1-.975.204 1.385 1.385 0 0 1-.826-.537l-1.179-1.594-5.92-8.013-1.178-1.594a1.385 1.385 0 0 1-.27-.946c.033-.353.208-.672.481-.874l1.17-.864 9.867 13.354-1.17.864zm6.49-.494c.236.32.35.703.322 1.08a1.288 1.288 0 0 1-1.56 1.153 1.616 1.616 0 0 1-.938-.625l-1.563-2.114-10.853-14.69-1.562-2.115a1.618 1.618 0 0 1-.322-1.079 1.29 1.29 0 0 1 .506-.949c.292-.215.676-.29 1.055-.204.368.083.701.305.937.625l5.51 7.456 2.96 4.007L34.1 50.62zm-4.914-8.928l-1.974-2.67L41.36 28.57l1.974 2.67-14.146 10.452zm23.412-4.74c.237.32.35.704.322 1.08a1.288 1.288 0 0 1-1.56 1.153 1.617 1.617 0 0 1-.938-.624l-5.509-7.456-2.96-4.007-5.509-7.455a1.618 1.618 0 0 1-.322-1.08c.03-.387.214-.732.506-.948.292-.216.677-.29 1.056-.205.367.082.7.305.937.625l1.562 2.114 10.853 14.69 1.562 2.114zm.308-6.413c.497.673.393 1.595-.232 2.057l-1.043.77-9.867-13.354 1.043-.77c.625-.462 1.537-.29 2.034.382l1.073 1.451 5.92 8.013 1.072 1.451zm.14-5.502c.284.384.454.828.47 1.222.015.347-.091.621-.297.773l-.79.584-4.934-6.677.791-.585c.205-.151.499-.172.826-.056.371.13.746.425 1.03.808l2.904 3.931z" fill="#171A27"></path>
  </symbol>
  <symbol viewBox="0 0 65 64" fill="none"
    xmlns="http://www.w3.org/2000/svg" id="home-icon">
    <path fill-rule="evenodd" clip-rule="evenodd" d="M41 9H5v50h50V32h5v32H0V4h41v5z" fill="#FF9781"></path>
    <path d="M58.248 12.38c1.717.28 3.033.924 3.948 1.932.915.99 1.372 2.221 1.372 3.696a5.926 5.926 0 0 1-.896 3.164c-.597.952-1.512 1.717-2.744 2.296-1.213.579-2.707.868-4.48.868-1.381 0-2.744-.177-4.088-.532-1.325-.373-2.455-.896-3.388-1.568l1.764-3.472c.747.56 1.605.999 2.576 1.316.99.299 1.997.448 3.024.448 1.139 0 2.035-.215 2.688-.644.653-.448.98-1.073.98-1.876 0-1.605-1.223-2.408-3.668-2.408h-2.072v-2.996l4.032-4.564h-8.344V4.4h13.72v2.94l-4.424 5.04z" fill="#FF9781"></path>
    <path d="M40.743 30.844l-11.159-10.61a.847.847 0 0 0-1.168 0l-11.159 10.61a.823.823 0 0 0-.257.596c0 .458.377.829.841.829h1.483v11.6c0 .457.377.828.842.828h5.89a.835.835 0 0 0 .84-.828V37.24h4.207v6.629c0 .457.377.828.842.828h5.89a.835.835 0 0 0 .84-.828v-11.6h1.484a.848.848 0 0 0 .605-.253.82.82 0 0 0-.02-1.172zm-2.067.596a.835.835 0 0 0-.842.829v11.6h-5.89V37.24a.835.835 0 0 0-.84-.828h-4.207a.835.835 0 0 0-.842.828v6.629h-5.89v-11.6a.835.835 0 0 0-.84-.829H17.84L29 20.83l11.163 10.61h-1.487z" fill="#061229"></path>
  </symbol>
  <symbol viewBox="0 0 37 37" fill="none"
    xmlns="http://www.w3.org/2000/svg" id="investment-block-icon">
    <g clip-path="url(#clip0)" fill="#000">
      <path d="M26.776 8.006c-1.91 0-3.42 1.533-3.42 3.443 0 1.91 1.534 3.42 3.42 3.42a3.447 3.447 0 0 0 3.444-3.444c0-1.91-1.533-3.42-3.444-3.42zm0 6.108a2.687 2.687 0 0 1-2.688-2.689c0-1.486 1.226-2.665 2.688-2.665a2.687 2.687 0 0 1 2.689 2.689 2.667 2.667 0 0 1-2.689 2.665z"></path>
      <path d="M27.861 11.968c-.023-.071-.023-.118-.07-.19-.024-.046-.047-.117-.095-.164-.047-.047-.07-.095-.118-.142a.423.423 0 0 0-.165-.118c-.047-.047-.118-.07-.165-.094-.07-.024-.118-.07-.188-.094a1.614 1.614 0 0 1-.19-.071.179.179 0 0 1-.093-.047c-.024-.024-.071-.024-.095-.047-.023-.024-.07-.024-.094-.047a23.563 23.563 0 0 0-.07-.071c-.024-.024-.048-.047-.048-.095-.024-.023-.024-.07-.024-.094v-.118c0-.023.024-.07.024-.094.024-.024.024-.07.047-.095l.07-.07a.18.18 0 0 1 .119-.047c.047-.024.07-.024.118-.024h.141a.21.21 0 0 1 .118.024c.047 0 .095.023.118.023.024 0 .07.024.094.024.048 0 .071.023.095.023l.118.047.023-.141.047-.377v-.095l-.094-.023c-.024 0-.07-.024-.094-.024-.024 0-.047-.023-.095-.023-.023 0-.07-.024-.118-.024-.047 0-.07-.024-.117-.024h-.024v-.448h-.566v.472h-.024c-.07.024-.141.047-.212.094a.433.433 0 0 0-.165.118 1.05 1.05 0 0 0-.141.165.481.481 0 0 0-.095.189l-.07.212c-.024.071-.024.165-.024.236 0 .07 0 .118.023.189.024.07.024.118.071.188.024.048.071.118.095.165.047.048.07.095.117.142a.423.423 0 0 0 .166.118c.047.047.117.07.165.094.07.024.141.071.188.095.071.023.142.047.189.07.024 0 .07.024.094.047.024.024.071.024.095.048.023.023.047.047.07.047l.071.07c.024.024.024.048.047.095 0 .024.024.07.024.118v.118c0 .023-.024.07-.047.094l-.071.07c-.024.024-.047.048-.094.072-.024.023-.071.023-.095.047-.023 0-.07.023-.118.023h-.306c-.047 0-.095-.023-.118-.023a.335.335 0 0 1-.142-.047c-.047-.024-.094-.024-.141-.048-.024 0-.047-.023-.07-.023-.024 0-.048-.024-.072-.024l-.141-.07-.024.165-.047.424v.07l.071.024c.094-.023.142 0 .212.024a.437.437 0 0 0 .165.047c.047.024.118.024.189.047a.51.51 0 0 0 .189.024h.047v.471h.566v-.495h.023a.838.838 0 0 0 .213-.094c.07-.024.117-.07.188-.118.047-.047.095-.094.142-.165.047-.047.07-.118.118-.189l.07-.212c.024-.07.024-.141.024-.236 0-.07 0-.118-.024-.188zm-2.735 3.348c-.118-.165-.378-.188-.543-.07l-3.82 3.042-4.929-2.052a.377.377 0 0 0-.354.047l-5.282 3.773a.377.377 0 0 0-.095.52.345.345 0 0 0 .307.164.38.38 0 0 0 .212-.07l5.118-3.656 4.952 2.052a.424.424 0 0 0 .377-.047l3.986-3.16c.165-.118.189-.378.07-.543z"></path>
      <path d="M30.644 28.24h-1.745V17.32a.373.373 0 0 0-.377-.377h-3.467a.373.373 0 0 0-.377.378V28.24h-1.274v-7.146a.373.373 0 0 0-.377-.377h-3.49a.373.373 0 0 0-.378.377v7.146h-1.273v-7.712a.373.373 0 0 0-.378-.377h-3.466a.373.373 0 0 0-.378.377v7.712h-1.273v-5.495a.372.372 0 0 0-.377-.378h-3.49a.373.373 0 0 0-.378.378v5.495H6.377a.373.373 0 0 0-.377.377c0 .212.165.377.377.377H30.62a.373.373 0 0 0 .378-.377c.023-.212-.142-.377-.354-.377zm-19.031 0H8.9v-5.118h2.712v5.118zm5.518 0H14.42v-7.335h2.712v7.335zm5.495 0h-2.712v-6.77h2.712v6.769zm5.518 0h-2.712V17.698h2.712V28.24z"></path>
    </g>
    <path stroke="#FF9781" stroke-width="3" d="M1.5 1.5h34v34h-34z"></path>
    <defs>
      <clipPath id="clip0">
        <path fill="#fff" d="M6 6h25v25H6z"></path>
      </clipPath>
    </defs>
  </symbol>
  <symbol viewBox="0 0 70 70" fill="none"
    xmlns="http://www.w3.org/2000/svg" id="kindergarden-icon">
    <path d="M46.242 35.83h-8.08a.748.748 0 0 0-.75.746v5.349c0 .412.336.746.75.746h8.08c.414 0 .75-.334.75-.746v-5.35a.748.748 0 0 0-.75-.745zm-4.79 5.349h-2.54v-3.857h2.54v3.856zm4.04 0h-2.54v-3.857h2.54v3.856zM32.107 26.167c-.041-1.903-1.63-3.45-3.543-3.45h-.023a3.57 3.57 0 0 0-.91.124 4.695 4.695 0 0 0-4.079-2.378c-1.704 0-3.26.93-4.078 2.378a3.57 3.57 0 0 0-.91-.124h-.023c-1.913 0-3.502 1.547-3.544 3.45v.044a2.134 2.134 0 0 0 .628 1.536c.417.419.974.65 1.567.65h12.72c.594 0 1.15-.231 1.567-.65.411-.413.634-.959.629-1.535v-.045zm-1.692.53a.702.702 0 0 1-.502.208H17.192a.703.703 0 0 1-.502-.209.656.656 0 0 1-.195-.47v-.027a2.052 2.052 0 0 1 2.045-1.99h.014c.336.002.656.083.95.24a.753.753 0 0 0 1.06-.404 3.185 3.185 0 0 1 2.988-2.09c1.335 0 2.537.84 2.99 2.09a.747.747 0 0 0 1.058.404 2.03 2.03 0 0 1 .95-.24h.014c1.104 0 2.021.893 2.045 1.99v.026a.655.655 0 0 1-.194.471z" fill="#171A27"></path>
    <path stroke="#FF9781" stroke-width="5" d="M2.5 2.5h65v65h-65z"></path>
    <path d="M57.47 48.684a3.212 3.212 0 0 0-2.46-2.448 3.21 3.21 0 0 0-4.844-2.027v-9.53h3.005c.414 0 .75-.335.75-.747v-3.177a.748.748 0 0 0-.75-.746h-13.09v-2.384h8.633a.748.748 0 0 0 .749-.747v-3.944h7.413c.593 0 1.15-.23 1.566-.65.411-.413.635-.958.629-1.538v-.042c-.042-1.902-1.632-3.45-3.544-3.45h-.023a3.562 3.562 0 0 0-.91.125A4.695 4.695 0 0 0 50.515 15c-1.704 0-3.26.93-4.078 2.379a3.567 3.567 0 0 0-.91-.125h-.023c-1.904 0-3.487 1.534-3.542 3.425H40.08a.748.748 0 0 0-.75-.745.748.748 0 0 0-.749.746v9.329H16.83a.748.748 0 0 0-.75.746v3.177c0 .412.336.746.75.746h3.006v9.53a3.21 3.21 0 0 0-4.845 2.027 3.211 3.211 0 0 0-2.46 2.449A3.203 3.203 0 0 0 10 51.806 3.205 3.205 0 0 0 13.208 55h43.584A3.205 3.205 0 0 0 60 51.806a3.203 3.203 0 0 0-2.53-3.122zm-44.262 4.824c-.943 0-1.71-.764-1.71-1.702 0-.939.767-1.702 1.71-1.702.414 0 .75-.334.75-.746 0-.938.766-1.702 1.708-1.702.414 0 .75-.334.75-.746 0-.939.767-1.702 1.71-1.702.942 0 1.708.763 1.708 1.702v6.598h-6.626zm32.296-34.762h.013c.336.002.656.083.95.24a.753.753 0 0 0 1.06-.404 3.185 3.185 0 0 1 2.988-2.09c1.335 0 2.536.84 2.99 2.09a.747.747 0 0 0 1.058.404 2.03 2.03 0 0 1 .95-.24h.014c1.104 0 2.021.893 2.045 1.993v.023a.655.655 0 0 1-.194.472.703.703 0 0 1-.502.208h-7.413v-.017a.748.748 0 0 0-.75-.746h-5.252a2.053 2.053 0 0 1 2.043-1.933zm-5.423 3.425h7.883v3.961h-7.883v-3.96zm-1.636 31.337h-6.89v-8.259h6.89v8.259zm10.222-6.598v6.598h-8.723v-9.005a.748.748 0 0 0-.75-.746h-8.389a.748.748 0 0 0-.749.746v9.005h-8.723V34.679h27.334V46.91zM20.584 33.186h-3.006v-1.684h34.844v1.684H20.584zm36.208 20.322h-6.626V46.91c0-.939.767-1.702 1.709-1.702.943 0 1.71.763 1.71 1.702 0 .412.335.746.749.746.942 0 1.709.764 1.709 1.702 0 .412.335.746.75.746.942 0 1.709.763 1.709 1.702 0 .938-.767 1.702-1.71 1.702z" fill="#171A27"></path>
    <path d="M31.838 35.83h-8.08a.748.748 0 0 0-.75.746v5.349c0 .412.336.746.75.746h8.08c.414 0 .75-.334.75-.746v-5.35a.748.748 0 0 0-.75-.745zm-4.79 5.349h-2.541v-3.857h2.541v3.856zm4.04 0h-2.54v-3.857h2.54v3.856z" fill="#171A27"></path>
  </symbol>
  <symbol viewBox="0 0 64 66" fill="none"
    xmlns="http://www.w3.org/2000/svg" id="location-icon">
    <path fill-rule="evenodd" clip-rule="evenodd" d="M41 11H5v50h50V30h5v36H0V6h41v5z" fill="#FF9781"></path>
    <path d="M62.736 20.304V24H47.924v-2.94l7.56-7.14c.803-.765 1.344-1.419 1.624-1.96.28-.56.42-1.11.42-1.652 0-.784-.27-1.381-.812-1.792-.523-.43-1.297-.644-2.324-.644-.859 0-1.633.168-2.324.504-.69.317-1.27.803-1.736 1.456l-3.304-2.128c.765-1.139 1.82-2.025 3.164-2.66 1.344-.653 2.884-.98 4.62-.98 1.456 0 2.725.243 3.808.728 1.101.467 1.95 1.139 2.548 2.016.616.859.924 1.876.924 3.052a6.834 6.834 0 0 1-.672 2.996c-.448.933-1.316 1.997-2.604 3.192l-4.508 4.256h8.428z" fill="#FF9781"></path>
    <path d="M30.589 27.532c-1.912 0-3.468 1.417-3.468 3.157s1.556 3.158 3.468 3.158c1.911 0 3.468-1.417 3.468-3.158 0-1.74-1.557-3.157-3.468-3.157zm0 5.412c-1.366 0-2.477-1.011-2.477-2.255 0-1.243 1.11-2.255 2.477-2.255 1.366 0 2.477 1.012 2.477 2.255 0 1.244-1.112 2.255-2.477 2.255z" fill="#061229"></path>
    <path d="M37.219 24.653c-1.794-1.634-4.18-2.534-6.718-2.534-2.538 0-4.924.9-6.718 2.534-3.32 3.023-3.734 8.71-.894 12.156l7.612 10.008 7.6-9.994c2.851-3.46 2.439-9.147-.882-12.17zm.079 11.643L30.5 45.232l-6.808-8.95c-2.575-3.126-2.206-8.263.791-10.991 1.607-1.463 3.744-2.27 6.017-2.27s4.41.807 6.017 2.27c2.998 2.728 3.367 7.865.78 11.005z" fill="#061229"></path>
  </symbol>
  <symbol viewBox="0 0 29 28" fill="none"
    xmlns="http://www.w3.org/2000/svg" id="mail">
    <path d="M26.451 3.336H2.55c-.393 0-.76.093-1.092.247L14.443 16.12l2.911-2.7v-.001l10.19-9.837a2.593 2.593 0 0 0-1.093-.247zm2.294 1.407L19.157 14l9.587 9.257c.16-.32.256-.675.256-1.054V5.797c0-.379-.096-.733-.255-1.054zm-28.49 0C.096 5.063 0 5.418 0 5.797v16.406c0 .379.096.733.255 1.054L9.844 14 .255 4.743z" fill="#0A254D"></path>
    <path d="M17.955 15.16l-2.91 2.701a.863.863 0 0 1-.601.24.862.862 0 0 1-.601-.24l-2.798-2.701-9.588 9.257c.332.154.7.247 1.092.247H26.45c.393 0 .76-.093 1.092-.247l-9.588-9.257z" fill="#0A254D"></path>
  </symbol>
  <symbol viewBox="0 0 70 70" fill="none"
    xmlns="http://www.w3.org/2000/svg" id="own-ponds-icon">
    <path stroke="#FF9781" stroke-width="5" d="M2.5 2.5h65v65h-65z"></path>
    <mask id="a" fill="#fff">
      <path d="M57.875 18.365a1.564 1.564 0 0 0-.487-1.116l-.727-.697A5.602 5.602 0 0 0 52.765 15a5.591 5.591 0 0 0-3.96 1.616l-.619.611a2.316 2.316 0 0 1-1.64.67 2.32 2.32 0 0 1-1.614-.643l-.534-.513a5.602 5.602 0 0 0-3.896-1.552 5.592 5.592 0 0 0-3.961 1.616l-.306.303a2.316 2.316 0 0 1-1.64.67 2.32 2.32 0 0 1-1.614-.643l-.239-.23a5.602 5.602 0 0 0-3.895-1.551 5.591 5.591 0 0 0-3.961 1.615 2.316 2.316 0 0 1-1.641.67 2.32 2.32 0 0 1-1.615-.645l-.036-.035a5.602 5.602 0 0 0-3.896-1.552 5.59 5.59 0 0 0-3.96 1.615l-.27.267c-.303.3-.471.705-.468 1.125l.128 14.926c.05 5.8 2.407 11.245 6.64 15.33C23.998 52.75 29.606 55 35.56 55h.19c5.994-.049 11.608-2.367 15.81-6.526 4.203-4.16 6.49-9.663 6.44-15.497l-.124-14.612zm-30.516 3.512a1.976 1.976 0 0 1 1.383-.57c1.09 0 1.97.85 1.978 1.895a1.87 1.87 0 0 1-.563 1.355 1.974 1.974 0 0 1-1.383.57h-.016c-1.074 0-1.954-.85-1.963-1.894-.004-.51.196-.992.564-1.356zm-4.605 9.451c-1.539 0-2.8-1.218-2.813-2.715a2.682 2.682 0 0 1 .807-1.943 2.83 2.83 0 0 1 1.983-.818h.023c1.538 0 2.8 1.218 2.812 2.715.013 1.51-1.238 2.748-2.789 2.761h-.023zm25.893 10.866c0 .032 0 .064-.005.095-.003.019-.01.036-.015.054-.008.027-.015.054-.027.08a.49.49 0 0 1-.028.05.566.566 0 0 1-.143.166.567.567 0 0 1-.26.113.53.53 0 0 1-.065.008c-.01 0-.02.003-.029.003a.619.619 0 0 1-.108-.01 2.744 2.744 0 0 1-1.248-.57c-.14-.115-.28-.25-.412-.408a4.88 4.88 0 0 1-.22-.283 6.358 6.358 0 0 1-.539-.908 8.426 8.426 0 0 1-.406-.979l-.061-.178a.644.644 0 0 0-.08-.16.646.646 0 0 0-.083-.101l-.004-.005a.652.652 0 0 0-.136-.098.66.66 0 0 0-.113-.05l-.01-.005a.686.686 0 0 0-.132-.027l-.033-.002a.658.658 0 0 0-.126.003l-.01.001a.671.671 0 0 0-.134.035l-.031.013a.665.665 0 0 0-.128.069 20.41 20.41 0 0 1-2.95 1.736 17.283 17.283 0 0 1-2.955 1.1.732.732 0 0 0-.545.624c-.01.095 0 .194.035.292a10.95 10.95 0 0 1 .252.853.8.8 0 0 1 .018.105l.003.034a.787.787 0 0 1 .002.07l-.002.04a.848.848 0 0 1-.028.16 1.206 1.206 0 0 1-.033.095l-.016.035-.03.055-.018.03a.82.82 0 0 1-.043.061l-.014.019a.844.844 0 0 1-.066.072l-.016.013a.86.86 0 0 1-.06.05.846.846 0 0 1-.082.055l-.032.019a.817.817 0 0 1-.25.087l-.038.007a.75.75 0 0 1-.071.005l-.033.002h-.008a.753.753 0 0 1-.067-.004c-.012 0-.023 0-.035-.002a.874.874 0 0 1-.108-.02h-.003a14.992 14.992 0 0 1-2.37-.823c-.135-.06-.273-.122-.414-.189a5.18 5.18 0 0 1-1.717-1.29 17.926 17.926 0 0 1-3.712-.761 18.124 18.124 0 0 1-3.782-1.7c-.55-.33-1-.64-1.343-.896a1.127 1.127 0 0 1-.459-.926c0-.007.003-.014.003-.02a1.12 1.12 0 0 1 .07-.349 1.12 1.12 0 0 1 .12-.243c.188-.28.428-.613.726-.972 1.293-1.557 3.664-3.63 7.472-4.326l-.002-.079v-.002a5.467 5.467 0 0 1 .039-.729 5.604 5.604 0 0 1 .076-.49 6.047 6.047 0 0 1 .344-1.131 4.29 4.29 0 0 1 .192-.4 4.059 4.059 0 0 1 .647-.88.798.798 0 0 1 .13-.108c.017-.01.034-.017.05-.026.032-.018.063-.037.097-.05.02-.009.042-.013.063-.019.03-.01.062-.02.093-.026.023-.004.046-.004.07-.006.025-.003.051-.008.078-.008l.013.001c.032 0 .064.006.096.01.023.004.047.005.07.01.033.007.065.02.097.03.021.008.043.013.064.023.034.015.066.037.098.057.016.01.033.018.049.03a.783.783 0 0 1 .127.12h.001a6.187 6.187 0 0 0 .431.46l.002.001a5.38 5.38 0 0 0 .561.465c.104.074.213.144.327.21.34.197.724.352 1.146.42a26.561 26.561 0 0 0 2.867.297.98.98 0 0 1 .897.693c.053.172.105.365.145.56.035.177.055.378.066.577.017.326.01.645.002.835.11.041.215.084.321.127a16.005 16.005 0 0 1 3.287 1.77c.043.03.088.053.135.072l.029.012c.045.016.09.027.137.034l.023.001c.04.004.081.004.121 0 .011 0 .022 0 .033-.002a.69.69 0 0 0 .134-.032l.025-.01a.684.684 0 0 0 .103-.052l.03-.018a.65.65 0 0 0 .107-.09l.01-.013a.624.624 0 0 0 .093-.136.629.629 0 0 0 .054-.139c.166-.676.452-1.518.932-2.222a2.752 2.752 0 0 1 1.56-1.134.593.593 0 0 1 .158-.022h.003a.56.56 0 0 1 .143.018c.014.004.028.01.043.016.03.01.059.02.087.035l.044.029a.595.595 0 0 1 .107.09.587.587 0 0 1 .116.187c.006.017.013.033.018.05.008.03.011.062.014.094.001.015.005.03.005.046a.56.56 0 0 1-.02.148 6.225 6.225 0 0 0-.213 1.172c-.01.136-.012.272-.006.403.012.261.021.515.021.758 0 .727-.078 1.352-.372 1.783a2.312 2.312 0 0 1-.376.413.812.812 0 0 0-.273.607.796.796 0 0 0 .283.603c.114.097.225.205.325.324.073.088.135.19.191.298.072.136.133.284.181.448.115.392.171.855.206 1.36.01.125.017.254.024.385.02.391.125.812.247 1.185.041.125.084.244.127.355.019.05.03.1.034.148 0 .018-.003.033-.002.05z"></path>
    </mask>
    <path d="M57.875 18.365a1.564 1.564 0 0 0-.487-1.116l-.727-.697A5.602 5.602 0 0 0 52.765 15a5.591 5.591 0 0 0-3.96 1.616l-.619.611a2.316 2.316 0 0 1-1.64.67 2.32 2.32 0 0 1-1.614-.643l-.534-.513a5.602 5.602 0 0 0-3.896-1.552 5.592 5.592 0 0 0-3.961 1.616l-.306.303a2.316 2.316 0 0 1-1.64.67 2.32 2.32 0 0 1-1.614-.643l-.239-.23a5.602 5.602 0 0 0-3.895-1.551 5.591 5.591 0 0 0-3.961 1.615 2.316 2.316 0 0 1-1.641.67 2.32 2.32 0 0 1-1.615-.645l-.036-.035a5.602 5.602 0 0 0-3.896-1.552 5.59 5.59 0 0 0-3.96 1.615l-.27.267c-.303.3-.471.705-.468 1.125l.128 14.926c.05 5.8 2.407 11.245 6.64 15.33C23.998 52.75 29.606 55 35.56 55h.19c5.994-.049 11.608-2.367 15.81-6.526 4.203-4.16 6.49-9.663 6.44-15.497l-.124-14.612zm-30.516 3.512a1.976 1.976 0 0 1 1.383-.57c1.09 0 1.97.85 1.978 1.895a1.87 1.87 0 0 1-.563 1.355 1.974 1.974 0 0 1-1.383.57h-.016c-1.074 0-1.954-.85-1.963-1.894-.004-.51.196-.992.564-1.356zm-4.605 9.451c-1.539 0-2.8-1.218-2.813-2.715a2.682 2.682 0 0 1 .807-1.943 2.83 2.83 0 0 1 1.983-.818h.023c1.538 0 2.8 1.218 2.812 2.715.013 1.51-1.238 2.748-2.789 2.761h-.023zm25.893 10.866c0 .032 0 .064-.005.095-.003.019-.01.036-.015.054-.008.027-.015.054-.027.08a.49.49 0 0 1-.028.05.566.566 0 0 1-.143.166.567.567 0 0 1-.26.113.53.53 0 0 1-.065.008c-.01 0-.02.003-.029.003a.619.619 0 0 1-.108-.01 2.744 2.744 0 0 1-1.248-.57c-.14-.115-.28-.25-.412-.408a4.88 4.88 0 0 1-.22-.283 6.358 6.358 0 0 1-.539-.908 8.426 8.426 0 0 1-.406-.979l-.061-.178a.644.644 0 0 0-.08-.16.646.646 0 0 0-.083-.101l-.004-.005a.652.652 0 0 0-.136-.098.66.66 0 0 0-.113-.05l-.01-.005a.686.686 0 0 0-.132-.027l-.033-.002a.658.658 0 0 0-.126.003l-.01.001a.671.671 0 0 0-.134.035l-.031.013a.665.665 0 0 0-.128.069 20.41 20.41 0 0 1-2.95 1.736 17.283 17.283 0 0 1-2.955 1.1.732.732 0 0 0-.545.624c-.01.095 0 .194.035.292a10.95 10.95 0 0 1 .252.853.8.8 0 0 1 .018.105l.003.034a.787.787 0 0 1 .002.07l-.002.04a.848.848 0 0 1-.028.16 1.206 1.206 0 0 1-.033.095l-.016.035-.03.055-.018.03a.82.82 0 0 1-.043.061l-.014.019a.844.844 0 0 1-.066.072l-.016.013a.86.86 0 0 1-.06.05.846.846 0 0 1-.082.055l-.032.019a.817.817 0 0 1-.25.087l-.038.007a.75.75 0 0 1-.071.005l-.033.002h-.008a.753.753 0 0 1-.067-.004c-.012 0-.023 0-.035-.002a.874.874 0 0 1-.108-.02h-.003a14.992 14.992 0 0 1-2.37-.823c-.135-.06-.273-.122-.414-.189a5.18 5.18 0 0 1-1.717-1.29 17.926 17.926 0 0 1-3.712-.761 18.124 18.124 0 0 1-3.782-1.7c-.55-.33-1-.64-1.343-.896a1.127 1.127 0 0 1-.459-.926c0-.007.003-.014.003-.02a1.12 1.12 0 0 1 .07-.349 1.12 1.12 0 0 1 .12-.243c.188-.28.428-.613.726-.972 1.293-1.557 3.664-3.63 7.472-4.326l-.002-.079v-.002a5.467 5.467 0 0 1 .039-.729 5.604 5.604 0 0 1 .076-.49 6.047 6.047 0 0 1 .344-1.131 4.29 4.29 0 0 1 .192-.4 4.059 4.059 0 0 1 .647-.88.798.798 0 0 1 .13-.108c.017-.01.034-.017.05-.026.032-.018.063-.037.097-.05.02-.009.042-.013.063-.019.03-.01.062-.02.093-.026.023-.004.046-.004.07-.006.025-.003.051-.008.078-.008l.013.001c.032 0 .064.006.096.01.023.004.047.005.07.01.033.007.065.02.097.03.021.008.043.013.064.023.034.015.066.037.098.057.016.01.033.018.049.03a.783.783 0 0 1 .127.12h.001a6.187 6.187 0 0 0 .431.46l.002.001a5.38 5.38 0 0 0 .561.465c.104.074.213.144.327.21.34.197.724.352 1.146.42a26.561 26.561 0 0 0 2.867.297.98.98 0 0 1 .897.693c.053.172.105.365.145.56.035.177.055.378.066.577.017.326.01.645.002.835.11.041.215.084.321.127a16.005 16.005 0 0 1 3.287 1.77c.043.03.088.053.135.072l.029.012c.045.016.09.027.137.034l.023.001c.04.004.081.004.121 0 .011 0 .022 0 .033-.002a.69.69 0 0 0 .134-.032l.025-.01a.684.684 0 0 0 .103-.052l.03-.018a.65.65 0 0 0 .107-.09l.01-.013a.624.624 0 0 0 .093-.136.629.629 0 0 0 .054-.139c.166-.676.452-1.518.932-2.222a2.752 2.752 0 0 1 1.56-1.134.593.593 0 0 1 .158-.022h.003a.56.56 0 0 1 .143.018c.014.004.028.01.043.016.03.01.059.02.087.035l.044.029a.595.595 0 0 1 .107.09.587.587 0 0 1 .116.187c.006.017.013.033.018.05.008.03.011.062.014.094.001.015.005.03.005.046a.56.56 0 0 1-.02.148 6.225 6.225 0 0 0-.213 1.172c-.01.136-.012.272-.006.403.012.261.021.515.021.758 0 .727-.078 1.352-.372 1.783a2.312 2.312 0 0 1-.376.413.812.812 0 0 0-.273.607.796.796 0 0 0 .283.603c.114.097.225.205.325.324.073.088.135.19.191.298.072.136.133.284.181.448.115.392.171.855.206 1.36.01.125.017.254.024.385.02.391.125.812.247 1.185.041.125.084.244.127.355.019.05.03.1.034.148 0 .018-.003.033-.002.05z" stroke="#171A27" stroke-width="2" mask="url(#a)"></path>
  </symbol>
  <symbol viewBox="0 0 62 64" fill="none"
    xmlns="http://www.w3.org/2000/svg" id="paper-icon">
    <path fill-rule="evenodd" clip-rule="evenodd" d="M41 9H5v50h50V34h5v30H0V4h41v5z" fill="#FF9781"></path>
    <path d="M59.652 4.4V24h-4.536V8.04h-3.92V4.4h8.456z" fill="#FF9781"></path>
    <path d="M43.797 27.116l-10.534-6.008a.814.814 0 0 0-1.108.293l-.726 1.242a1.816 1.816 0 0 0-.315-.028H23.95a.425.425 0 0 0-.427.422c0 .234.191.423.427.423h7.163c.514 0 .933.413.933.921v19.55a.928.928 0 0 1-.933.921H18.482a.928.928 0 0 1-.933-.921v-2.553h1.081a.61.61 0 0 0 .613-.605v-1.095a.61.61 0 0 0-.613-.605h-3.017a.61.61 0 0 0-.613.605v1.095a.61.61 0 0 0 .613.605h1.08v2.553a1.78 1.78 0 0 0 1.79 1.766h12.63a1.78 1.78 0 0 0 1.79-1.766v-7.656l2.72 1.552a.43.43 0 0 0 .585-.155.42.42 0 0 0-.157-.577L32.902 35.3v-1.308l3.722 2.123a.43.43 0 0 0 .585-.154.42.42 0 0 0-.157-.578l-4.15-2.367v-1.307l4.724 2.694a.43.43 0 0 0 .584-.155.42.42 0 0 0-.157-.577l-5.15-2.938v-1.308l5.724 3.265a.43.43 0 0 0 .584-.155.42.42 0 0 0-.157-.577l-6.152-3.51v-4.066c0-.564-.27-1.067-.688-1.39l.66-1.129 10.457 5.964-9.056 15.495a.43.43 0 0 0-.544.175.42.42 0 0 0 .156.577.815.815 0 0 0 1.108-.293l9.1-15.57a.798.798 0 0 0-.297-1.094zm-27.94 12.802h2.531v.615h-2.531v-.615z" fill="#061229"></path>
    <path d="M39.58 27.668l-4.692-2.677a.43.43 0 0 0-.584.155.42.42 0 0 0 .156.578l4.693 2.676a.43.43 0 0 0 .584-.155.42.42 0 0 0-.157-.577zm-23.967-.1h1.08v3.133c0 .233.192.422.428.422a.425.425 0 0 0 .428-.422v-3.133h1.081a.61.61 0 0 0 .613-.605v-1.095a.61.61 0 0 0-.613-.605h-1.08v-.882c0-.508.419-.92.933-.92h3.759c.236 0 .428-.19.428-.423a.425.425 0 0 0-.428-.423h-3.759a1.78 1.78 0 0 0-1.789 1.766v.882h-1.08a.61.61 0 0 0-.613.605v1.095a.61.61 0 0 0 .613.605zm.243-1.46h2.531v.615h-2.531v-.615zm-.243 8.365h1.08v3.339c0 .233.192.423.428.423.237 0 .428-.19.428-.423v-3.339h1.081a.61.61 0 0 0 .613-.605v-1.095a.61.61 0 0 0-.613-.605h-3.017a.61.61 0 0 0-.613.605v1.095a.61.61 0 0 0 .613.605zm.243-1.46h2.531v.615h-2.531v-.615zm5.054-5.771v2.196c0 .4.33.727.736.727h6.303a.732.732 0 0 0 .736-.727v-2.196a.732.732 0 0 0-.736-.727h-6.303a.732.732 0 0 0-.735.727zm.856.118h6.063v1.96h-6.063v-1.96z" fill="#061229"></path>
  </symbol>
  <symbol viewBox="0 0 26 26" fill="none"
    xmlns="http://www.w3.org/2000/svg" id="phone">
    <path d="M23.914 17.066c-1.592 0-3.155-.249-4.636-.738-.726-.248-1.618-.02-2.061.434l-2.923 2.207c-3.39-1.81-5.48-3.898-7.264-7.262l2.142-2.848a2.102 2.102 0 0 0 .517-2.129 14.785 14.785 0 0 1-.742-4.644C8.947.936 8.011 0 6.861 0H2.086C.936 0 0 .936 0 2.086 0 15.273 10.728 26 23.914 26c1.15 0 2.086-.936 2.086-2.086v-4.762c0-1.15-.936-2.086-2.086-2.086z" fill="#0A254D"></path>
  </symbol>
  <symbol viewBox="0 0 24 33" fill="none"
    xmlns="http://www.w3.org/2000/svg" id="pin-map">
    <path d="M19.654 3.367a11.522 11.522 0 0 0-16.281 0C-.652 7.385-1.152 14.946 2.29 19.527c0 0 8.9 13.085 9.058 13.303a.417.417 0 0 0 .671 0c.158-.233 8.706-13.284 8.706-13.284 3.453-4.6 2.952-12.16-1.072-16.179zm-8.035 12.221a4.207 4.207 0 0 1-3.883-2.59 4.191 4.191 0 0 1 .91-4.575 4.205 4.205 0 0 1 7.176 2.968 4.2 4.2 0 0 1-1.233 2.966 4.211 4.211 0 0 1-2.97 1.231z" fill="#0A254D"></path>
  </symbol>
  <symbol viewBox="0 0 44 43" fill="none"
    xmlns="http://www.w3.org/2000/svg" id="plane">
    <path d="M14.936 28.757l-4.02-1.408 1.533-1.532 2.992.49.26.043.181-.19 5.06-5.273.43-.447-.528-.325-9.462-5.825 1.854-1.854L24.94 16.31l.3.1.218-.228 4.916-5.124a1.815 1.815 0 1 1 2.567 2.567l.346.36-.346-.36-5.123 4.916-.228.218.099.3 3.874 11.706-1.854 1.853-5.825-9.462-.325-.528-.447.43-5.273 5.06-.19.182.042.26.491 2.991-1.532 1.533-1.408-4.02-.08-.227-.227-.08z" stroke="#061229"></path>
    <path stroke="#FF9781" stroke-width="4" d="M2 2h40v39H2z"></path>
  </symbol>
  <symbol viewBox="0 0 44 43" fill="none"
    xmlns="http://www.w3.org/2000/svg" id="plant">
    <path stroke="#FF9781" stroke-width="4" d="M2 2h40v39H2z"></path>
    <path d="M22.011 21.53c1.538.798 3.212.477 4.795-.278 2.745-1.308 4.448-3.908 4.692-6.694a.715.715 0 0 0-.317-.657c-2.254-1.505-5.115-1.796-7.655-.795.085.147.164.295.236.444m-1.75 7.98l.496-.056c-.01-.093-.022-.185-.034-.277m-.463.333c-.038-.346-.09-.685-.156-1.016m.156 1.016l.23-.444c.078.04.155.077.233.11m0 0c1.274.552 2.682.289 4.117-.396 2.582-1.23 4.18-3.673 4.409-6.286a.215.215 0 0 0-.097-.197l.277-.415-.277.415a7.8 7.8 0 0 0-7.141-.767m-1.288 7.647a12.684 12.684 0 0 0-.076-.499m1.364-7.148c-.155.06-.31.125-.462.195 1.179 2.425.469 5.126-1.445 6.769m1.907-6.963c1.222 2.539.541 5.357-1.364 7.147m0 0a12.15 12.15 0 0 0-.052-.281l-.491.097m.543.184a5.698 5.698 0 0 1-.217.195l-.326-.38" stroke="#061229"></path>
    <path d="M21.512 17.848c-.805-1.71-2.103-3.222-3.917-4.002a1.235 1.235 0 0 0-1.617.627l5.534 3.375zm0 0a3.69 3.69 0 0 0 .356-1.08l-.356 1.08zm-8.785-7.097a.225.225 0 0 0-.163.158c-.86 3.295.59 6.757 3.53 8.515.83.497 1.746.676 2.655.508l.401-.075.154.378c.466 1.148.782 2.494.888 4.03l.033.492-.492.04c-2.255.184-4.52.692-6.771 1.52-1.97.724-2.604 1.913-2.435 2.863.177.993 1.284 2.125 3.643 2.588a38.71 38.71 0 0 0 14.98 0c2.354-.461 3.463-1.593 3.642-2.587.17-.95-.46-2.138-2.434-2.864-2.39-.879-4.805-1.398-7.2-1.55.022.626.012 1.268-.03 1.924a1.227 1.227 0 0 1-1.305 1.14l.031-.5-9.127-16.58zm0 0a7.792 7.792 0 0 1 7.444 2.006m-7.444-2.006l7.444 2.006m0 0c1.203 1.191 1.938 2.519 1.697 4.01l-1.697-4.01zm.5 13.78l-4.693-12.064a1.214 1.214 0 0 0 .636 1.609c1.279.55 2.495 1.883 3.11 3.962l.006.023.01.023c.813 2.008 1.057 4.484.931 6.447z" stroke="#061229"></path>
  </symbol>
  <symbol viewBox="0 0 70 70" fill="none"
    xmlns="http://www.w3.org/2000/svg" id="playgrounds-icon">
    <path stroke="#FF9781" stroke-width="5" d="M2.5 2.5h65v65h-65z"></path>
    <path d="M52.656 28.75h1.563a.781.781 0 0 0 0-1.563h-2.344a.781.781 0 0 0-.781.782v3.906h-5.469v-3.906a.781.781 0 0 0-.781-.782H42.5a.781.781 0 0 0 0 1.563h1.563v3.572c-1.385 1.261-3.302 1.98-5.313 1.98-2.011 0-3.928-.719-5.313-1.98v-4.04H35a.781.781 0 0 0 .604-1.277l-9.61-11.72a.781.781 0 0 0-1.207 0l-9.61 11.72a.781.781 0 0 0 .604 1.276h1.563v25.157H15.78a.781.781 0 0 0 0 1.562h4.688a.781.781 0 0 0 0-1.563h-1.563V42.813h12.969v10.624h-1.563a.781.781 0 0 0 0 1.563H35a.781.781 0 1 0 0-1.563h-1.563V42.813h10.626v10.624H42.5a.781.781 0 0 0 0 1.563h11.719a.781.781 0 0 0 0-1.563h-1.563V28.75zm-7.031 9.375h5.469v3.125h-5.469v-3.125zm5.469-4.688v3.126h-5.469v-3.126h5.469zm-32.188-5.156h2.969a.781.781 0 1 0 0-1.562h-4.443l7.959-9.706 7.958 9.706h-4.443a.781.781 0 1 0 0 1.562h2.969V41.25h-3.36v-5.469a3.129 3.129 0 0 0-3.124-3.125 3.129 3.129 0 0 0-3.125 3.125v5.469h-3.36V28.281zm8.047 12.969h-3.125v-5.469a1.563 1.563 0 0 1 3.125 0v5.469zm6.485 0v-6.952c1.569 1.044 3.44 1.566 5.312 1.566 1.872 0 3.743-.522 5.313-1.566v6.952H33.437zm17.656 1.563v3.124h-5.469v-3.124h5.469zm-5.469 10.624V47.5h5.469v5.938h-5.469z" fill="#171A27"></path>
    <path d="M25.39 28.281a.781.781 0 1 0 0-1.562.781.781 0 0 0 0 1.562z" fill="#171A27"></path>
  </symbol>
  <symbol viewBox="0 0 25 25" fill="none"
    xmlns="http://www.w3.org/2000/svg" id="point_icon">
    <path d="M17.354 8.49l-7.448 6.947-2.25-2.25a.514.514 0 0 0-.734-.01.514.514 0 0 0 0 .745l2.604 2.604a.52.52 0 0 0 .724.01l7.813-7.291a.519.519 0 0 0 .026-.735.519.519 0 0 0-.735-.02z" fill="#061229"></path>
    <path d="M12.5 0C5.61 0 0 5.61 0 12.5S5.61 25 12.5 25 25 19.39 25 12.5 19.39 0 12.5 0zm0 23.958c-6.318 0-11.458-5.14-11.458-11.458 0-6.318 5.14-11.458 11.458-11.458 6.318 0 11.458 5.14 11.458 11.458 0 6.318-5.14 11.458-11.458 11.458z" fill="#061229"></path>
  </symbol>
  <symbol viewBox="0 0 70 70" fill="none"
    xmlns="http://www.w3.org/2000/svg" id="treadmills-icon">
    <path stroke="#FF9781" stroke-width="5" d="M2.5 2.5h65v65h-65z"></path>
    <path fill-rule="evenodd" clip-rule="evenodd" d="M50.224 47.2a.936.936 0 0 0-1.081.75l-.896 5.174H40.17a3.15 3.15 0 0 0 .235-.704l1.725-8.356c.416-1.459-.276-3.016-1.656-3.717l-8.2-4.161 1.978-5.219 5.16 1.414a3.35 3.35 0 0 0 3.415-1.031l4.397-5.125a3.145 3.145 0 0 0 .755-2.348 3.172 3.172 0 0 0-1.168-2.182 3.347 3.347 0 0 0-2.112-.75c-.979 0-1.9.42-2.527 1.152l-3.03 3.53-3.478-.952c1.37-.973 2.264-2.55 2.264-4.328 0-2.948-2.457-5.347-5.476-5.347-3.02 0-5.477 2.399-5.477 5.347 0 1.436.584 2.741 1.53 3.703l-6.508.348c-1.474.073-2.726 1.107-3.044 2.513l-1.37 5.995a3.127 3.127 0 0 0 .44 2.42 3.268 3.268 0 0 0 2.062 1.408c.234.051.473.076.712.076 1.529 0 2.878-1.059 3.208-2.517l.825-3.61 2.556-.137-5.244 13.833-3.942-1.257a3.368 3.368 0 0 0-1.018-.158c-1.43 0-2.69.893-3.132 2.222a3.127 3.127 0 0 0 .198 2.454 3.25 3.25 0 0 0 1.915 1.598l6.877 2.193c.353.121.72.183 1.092.182 1.376 0 2.62-.848 3.092-2.107l2.743-7.236 5.272 2.676-1.283 6.213a3.119 3.119 0 0 0 .234 1.965H11.938a.927.927 0 0 0-.938.916c0 .505.42.915.938.915H36.64a3.371 3.371 0 0 0 1.087 0h11.312a.932.932 0 0 0 .924-.763l1.029-5.937a.918.918 0 0 0-.768-1.055zM32.45 16.83c1.986 0 3.602 1.578 3.602 3.517 0 1.932-1.603 3.505-3.58 3.517a3.279 3.279 0 0 0-.288-.01c-1.862-.134-3.336-1.655-3.336-3.507 0-1.939 1.616-3.516 3.602-3.516zm3.553 35.724a1.346 1.346 0 0 1-.21-1.035l1.423-6.887a.908.908 0 0 0-.487-.993l-6.84-3.472a.953.953 0 0 0-.771-.041.925.925 0 0 0-.541.536l-3.113 8.211a1.424 1.424 0 0 1-1.808.829l-.024-.008-6.89-2.196a1.401 1.401 0 0 1-.825-.69 1.348 1.348 0 0 1-.085-1.056 1.412 1.412 0 0 1 1.349-.957c.148 0 .296.023.438.068l4.797 1.53a.943.943 0 0 0 1.17-.553l6.053-15.966a.898.898 0 0 0-.125-.861.948.948 0 0 0-.805-.37l-4.69.25a.93.93 0 0 0-.865.714l-.98 4.29a1.415 1.415 0 0 1-1.685 1.05 1.406 1.406 0 0 1-.887-.606c-.203-.31-.27-.68-.19-1.038l1.37-5.995a1.409 1.409 0 0 1 1.313-1.082l9.923-.53a4.04 4.04 0 0 1 .348-.003c.099.002.186.024.305.063l6.546 1.794a.95.95 0 0 0 .972-.293l3.42-3.984a1.43 1.43 0 0 1 1.089-.497c.336 0 .65.112.909.323a1.364 1.364 0 0 1 .178 1.951l-4.396 5.124a1.43 1.43 0 0 1-1.472.445l-5.992-1.642a.943.943 0 0 0-1.132.563l-2.566 6.768a.906.906 0 0 0 .447 1.13l8.934 4.534c.6.305.9.986.71 1.619a.893.893 0 0 0-.02.076l-1.733 8.393a1.4 1.4 0 0 1-1.028 1.065h-.707a1.405 1.405 0 0 1-.827-.57z" fill="#171A27"></path>
    <path fill-rule="evenodd" clip-rule="evenodd" d="M55.87 29.746h-7.047c-1.726 0-3.13 1.371-3.13 3.057 0 1.685 1.404 3.057 3.13 3.057h2.414l-.843 4.869a.918.918 0 0 0 .768 1.055.932.932 0 0 0 1.08-.75l.897-5.174h2.73c1.727 0 3.131-1.372 3.131-3.057 0-1.686-1.404-3.057-3.13-3.057zm0 4.283h-7.047c-.692 0-1.255-.55-1.255-1.226 0-.676.563-1.226 1.255-1.226h7.047c.692 0 1.255.55 1.255 1.226 0 .676-.563 1.226-1.255 1.226zm-5.177 9.547a.928.928 0 0 0-.938.916c0 .504.421.915.938.915a.929.929 0 0 0 .938-.915.928.928 0 0 0-.938-.916z" fill="#171A27"></path>
  </symbol>

  <symbol viewBox="0 0 16 16" fill="none"
    xmlns="http://www.w3.org/2000/svg" id="constructor-modal-close-icon">
    <path d="M14.14 15.56L7.78 9.19L1.42 15.56L0 14.14L6.37 7.78L0 1.42L1.42 0L7.78 6.37L14.14 0.0100002L15.55 1.42L9.19 7.78L15.55 14.14L14.14 15.56Z" fill="black"/>
  </symbol>
  <symbol viewBox="0 0 14 14" fill="none"
    xmlns="http://www.w3.org/2000/svg" id="close-icon-white">
    <path d="M8.40994 7.00019L12.7099 2.71019C12.8982 2.52188 13.004 2.26649 13.004 2.00019C13.004 1.73388 12.8982 1.47849 12.7099 1.29019C12.5216 1.10188 12.2662 0.996094 11.9999 0.996094C11.7336 0.996094 11.4782 1.10188 11.2899 1.29019L6.99994 5.59019L2.70994 1.29019C2.52164 1.10188 2.26624 0.996094 1.99994 0.996094C1.73364 0.996094 1.47824 1.10188 1.28994 1.29019C1.10164 1.47849 0.995847 1.73388 0.995847 2.00019C0.995847 2.26649 1.10164 2.52188 1.28994 2.71019L5.58994 7.00019L1.28994 11.2902C1.19621 11.3831 1.12182 11.4937 1.07105 11.6156C1.02028 11.7375 0.994141 11.8682 0.994141 12.0002C0.994141 12.1322 1.02028 12.2629 1.07105 12.3848C1.12182 12.5066 1.19621 12.6172 1.28994 12.7102C1.3829 12.8039 1.4935 12.8783 1.61536 12.9291C1.73722 12.9798 1.86793 13.006 1.99994 13.006C2.13195 13.006 2.26266 12.9798 2.38452 12.9291C2.50638 12.8783 2.61698 12.8039 2.70994 12.7102L6.99994 8.41019L11.2899 12.7102C11.3829 12.8039 11.4935 12.8783 11.6154 12.9291C11.7372 12.9798 11.8679 13.006 11.9999 13.006C12.132 13.006 12.2627 12.9798 12.3845 12.9291C12.5064 12.8783 12.617 12.8039 12.7099 12.7102C12.8037 12.6172 12.8781 12.5066 12.9288 12.3848C12.9796 12.2629 13.0057 12.1322 13.0057 12.0002C13.0057 11.8682 12.9796 11.7375 12.9288 11.6156C12.8781 11.4937 12.8037 11.3831 12.7099 11.2902L8.40994 7.00019Z" fill="white"/>
  </symbol>

</svg>