<svg width="44" height="43" viewBox="0 0 44 43" fill="none" xmlns="http://www.w3.org/2000/svg">
<path d="M31.4198 24.8098H13.282C13.5021 22.8951 14.3865 21.1114 15.7901 19.7747C17.3213 18.3164 19.3537 17.5012 21.4683 17.4973L21.9673 17.4963V16.9973V16.1223V15.7551C24.3664 15.8752 26.6486 16.8562 28.3895 18.5274C30.1252 20.1937 31.1974 22.4256 31.4198 24.8098Z" stroke="#061229"/>
<mask id="path-3-inside-1" fill="white">
<path d="M21.4673 14.3723C21.616 14.3723 21.7604 14.3767 21.9048 14.3854V12.6223H21.0298V14.3854C21.1742 14.3767 21.3185 14.3723 21.4673 14.3723Z"/>
</mask>
<path d="M21.9048 14.3854L21.4208 22.3708L29.9048 22.8849V14.3854H21.9048ZM21.9048 12.6223H29.9048V4.62228H21.9048V12.6223ZM21.0298 12.6223V4.62228H13.0298V12.6223H21.0298ZM21.0298 14.3854H13.0298V22.8849L21.5137 22.3708L21.0298 14.3854ZM21.4673 22.3723C21.4629 22.3723 21.456 22.3722 21.4472 22.3719C21.4383 22.3717 21.4293 22.3713 21.4208 22.3708L22.3887 6.40006C22.0811 6.38142 21.7753 6.37228 21.4673 6.37228V22.3723ZM29.9048 14.3854V12.6223H13.9048V14.3854H29.9048ZM21.9048 4.62228H21.0298V20.6223H21.9048V4.62228ZM13.0298 12.6223V14.3854H29.0298V12.6223H13.0298ZM21.5137 22.3708C21.5053 22.3713 21.4963 22.3717 21.4874 22.3719C21.4785 22.3722 21.4716 22.3723 21.4673 22.3723V6.37228C21.1592 6.37228 20.8534 6.38142 20.5458 6.40006L21.5137 22.3708Z" fill="#061229" mask="url(#path-3-inside-1)"/>
<mask id="path-5-inside-2" fill="white">
<path d="M23.8735 10.4348H19.061C18.887 10.4348 18.7201 10.5039 18.597 10.627C18.4739 10.7501 18.4048 10.917 18.4048 11.091C18.4048 11.2651 18.4739 11.432 18.597 11.5551C18.7201 11.6781 18.887 11.7473 19.061 11.7473H23.8735C24.0476 11.7473 24.2145 11.6781 24.3376 11.5551C24.4606 11.432 24.5298 11.2651 24.5298 11.091C24.5298 10.917 24.4606 10.7501 24.3376 10.627C24.2145 10.5039 24.0476 10.4348 23.8735 10.4348Z"/>
</mask>
<path d="M23.8735 10.4348V2.43478V10.4348ZM19.061 10.4348L19.061 2.43478L19.061 10.4348ZM23.8735 11.7473V19.7473V11.7473ZM23.8735 2.43478H19.061V18.4348H23.8735V2.43478ZM19.061 2.43478C16.7653 2.43478 14.5635 3.34678 12.9401 4.97014L24.2539 16.2838C22.8766 17.6611 21.0087 18.4348 19.061 18.4348L19.061 2.43478ZM12.9401 4.97014C11.3168 6.5935 10.4048 8.79524 10.4048 11.091H26.4048C26.4048 13.0387 25.6311 14.9066 24.2539 16.2838L12.9401 4.97014ZM10.4048 11.091C10.4048 13.3868 11.3168 15.5886 12.9401 17.2119L24.2539 5.89822C25.6311 7.27543 26.4048 9.14334 26.4048 11.091H10.4048ZM12.9401 17.2119C14.5635 18.8353 16.7653 19.7473 19.061 19.7473V3.74728C21.0087 3.74728 22.8766 4.521 24.2539 5.89822L12.9401 17.2119ZM19.061 19.7473H23.8735V3.74728H19.061V19.7473ZM23.8735 19.7473C26.1693 19.7473 28.3711 18.8353 29.9944 17.2119L18.6807 5.89822C20.0579 4.52099 21.9259 3.74728 23.8735 3.74728V19.7473ZM29.9944 17.2119C31.6178 15.5886 32.5298 13.3868 32.5298 11.091H16.5298C16.5298 9.14337 17.3035 7.27545 18.6807 5.89822L29.9944 17.2119ZM32.5298 11.091C32.5298 8.79527 31.6178 6.59351 29.9944 4.97014L18.6807 16.2838C17.3035 14.9066 16.5298 13.0387 16.5298 11.091H32.5298ZM29.9944 4.97014C28.3711 3.34677 26.1693 2.43478 23.8735 2.43478V18.4348C21.9259 18.4348 20.0579 17.6611 18.6807 16.2838L29.9944 4.97014Z" fill="#061229" mask="url(#path-5-inside-2)"/>
<path d="M9.5 30.5H33.5V32.5H9.5V30.5Z" stroke="#061229"/>
<path d="M32.3906 28.5H10.6093L11.0075 26.5H31.9925L32.3906 28.5Z" stroke="#061229"/>
<mask id="path-9-inside-3" fill="white">
<path d="M9.65479 17.4348H11.4048V18.3098H9.65479V17.4348Z"/>
</mask>
<path d="M9.65479 17.4348V9.43478H1.65479V17.4348H9.65479ZM11.4048 17.4348H19.4048V9.43478H11.4048V17.4348ZM11.4048 18.3098V26.3098H19.4048V18.3098H11.4048ZM9.65479 18.3098H1.65479V26.3098H9.65479V18.3098ZM9.65479 25.4348H11.4048V9.43478H9.65479V25.4348ZM3.40479 17.4348V18.3098H19.4048V17.4348H3.40479ZM11.4048 10.3098H9.65479V26.3098H11.4048V10.3098ZM17.6548 18.3098V17.4348H1.65479V18.3098H17.6548Z" fill="#061229" mask="url(#path-9-inside-3)"/>
<mask id="path-11-inside-4" fill="white">
<path d="M12.2798 14.8098H13.1548V16.5598H12.2798V14.8098Z"/>
</mask>
<path d="M12.2798 14.8098V6.80978H4.27979V14.8098H12.2798ZM13.1548 14.8098H21.1548V6.80978H13.1548V14.8098ZM13.1548 16.5598V24.5598H21.1548V16.5598H13.1548ZM12.2798 16.5598H4.27979V24.5598H12.2798V16.5598ZM12.2798 22.8098H13.1548V6.80978H12.2798V22.8098ZM5.15479 14.8098V16.5598H21.1548V14.8098H5.15479ZM13.1548 8.55978H12.2798V24.5598H13.1548V8.55978ZM20.2798 16.5598V14.8098H4.27979V16.5598H20.2798Z" fill="#061229" mask="url(#path-11-inside-4)"/>
<mask id="path-13-inside-5" fill="white">
<path d="M10.241 16.0152L10.8596 15.3966L12.0968 16.6339L11.4782 17.2525L10.241 16.0152Z"/>
</mask>
<path d="M10.241 16.0152L4.58497 10.3592L-1.07102 16.0152L4.58497 21.6712L10.241 16.0152ZM10.8596 15.3966L16.5156 9.7406L10.8596 4.08459L5.2036 9.7406L10.8596 15.3966ZM12.0968 16.6339L17.7528 22.2899L23.4088 16.6339L17.7528 10.9778L12.0968 16.6339ZM11.4782 17.2525L5.82222 22.9085L11.4782 28.5645L17.1342 22.9085L11.4782 17.2525ZM15.897 21.6712L16.5156 21.0526L5.2036 9.7406L4.58497 10.3592L15.897 21.6712ZM5.2036 21.0526L6.44085 22.2899L17.7528 10.9778L16.5156 9.7406L5.2036 21.0526ZM6.44085 10.9778L5.82222 11.5965L17.1342 22.9085L17.7528 22.2899L6.44085 10.9778ZM17.1342 11.5965L15.897 10.3592L4.58497 21.6712L5.82222 22.9085L17.1342 11.5965Z" fill="#061229" mask="url(#path-13-inside-5)"/>
<mask id="path-15-inside-6" fill="white">
<path d="M31.5298 17.4348H33.2798V18.3098H31.5298V17.4348Z"/>
</mask>
<path d="M31.5298 17.4348V9.43478H23.5298V17.4348H31.5298ZM33.2798 17.4348H41.2798V9.43478H33.2798V17.4348ZM33.2798 18.3098V26.3098H41.2798V18.3098H33.2798ZM31.5298 18.3098H23.5298V26.3098H31.5298V18.3098ZM31.5298 25.4348H33.2798V9.43478H31.5298V25.4348ZM25.2798 17.4348V18.3098H41.2798V17.4348H25.2798ZM33.2798 10.3098H31.5298V26.3098H33.2798V10.3098ZM39.5298 18.3098V17.4348H23.5298V18.3098H39.5298Z" fill="#061229" mask="url(#path-15-inside-6)"/>
<mask id="path-17-inside-7" fill="white">
<path d="M29.7798 14.8098H30.6548V16.5598H29.7798V14.8098Z"/>
</mask>
<path d="M29.7798 14.8098V6.80978H21.7798V14.8098H29.7798ZM30.6548 14.8098H38.6548V6.80978H30.6548V14.8098ZM30.6548 16.5598V24.5598H38.6548V16.5598H30.6548ZM29.7798 16.5598H21.7798V24.5598H29.7798V16.5598ZM29.7798 22.8098H30.6548V6.80978H29.7798V22.8098ZM22.6548 14.8098V16.5598H38.6548V14.8098H22.6548ZM30.6548 8.55978H29.7798V24.5598H30.6548V8.55978ZM37.7798 16.5598V14.8098H21.7798V16.5598H37.7798Z" fill="#061229" mask="url(#path-17-inside-7)"/>
<mask id="path-19-inside-8" fill="white">
<path d="M30.8325 16.6366L32.0698 15.3993L32.6884 16.0179L31.4511 17.2552L30.8325 16.6366Z"/>
</mask>
<path d="M30.8325 16.6366L25.1765 10.9806L19.5205 16.6366L25.1765 22.2926L30.8325 16.6366ZM32.0698 15.3993L37.7258 9.74331L32.0698 4.08729L26.4138 9.74331L32.0698 15.3993ZM32.6884 16.0179L38.3444 21.674L44.0004 16.0179L38.3444 10.3619L32.6884 16.0179ZM31.4511 17.2552L25.7952 22.9112L31.4511 28.5672L37.1071 22.9112L31.4511 17.2552ZM36.4885 22.2926L37.7258 21.0553L26.4138 9.74331L25.1765 10.9806L36.4885 22.2926ZM26.4138 21.0553L27.0324 21.674L38.3444 10.3619L37.7258 9.74331L26.4138 21.0553ZM27.0324 10.3619L25.7952 11.5992L37.1071 22.9112L38.3444 21.674L27.0324 10.3619ZM37.1071 11.5992L36.4885 10.9806L25.1765 22.2926L25.7952 22.9112L37.1071 11.5992Z" fill="#061229" mask="url(#path-19-inside-8)"/>
<rect x="2" y="2" width="40" height="39" stroke="#FF9781" stroke-width="4"/>
</svg>
