<svg width="44" height="43" viewBox="0 0 44 43" fill="none" xmlns="http://www.w3.org/2000/svg">
<path d="M14.9362 28.7572L10.916 27.3491L12.4486 25.8165L15.4407 26.3077L15.7003 26.3503L15.8824 26.1605L20.9429 20.8874L21.3719 20.4403L20.8443 20.1154L11.3823 14.2895L13.2355 12.4363L24.941 16.3101L25.2404 16.4092L25.4588 16.1816L30.3753 11.0583C31.0796 10.3245 32.2492 10.3125 32.9684 11.0316C33.6875 11.7508 33.6755 12.9204 32.9417 13.6247L33.2879 13.9854L32.9417 13.6247L27.8185 18.5411L27.5909 18.7595L27.69 19.059L31.5637 30.7645L29.7105 32.6177L23.8846 23.1558L23.5597 22.6281L23.1126 23.0572L17.8395 28.1176L17.6497 28.2997L17.6923 28.5593L18.1835 31.5514L16.6509 33.084L15.2428 29.0638L15.1633 28.8367L14.9362 28.7572Z" stroke="#061229"/>
<rect x="2" y="2" width="40" height="39" stroke="#FF9781" stroke-width="4"/>
</svg>
