<svg width="25" height="25" viewBox="0 0 25 25" fill="none" xmlns="http://www.w3.org/2000/svg">
<path d="M17.3542 8.48958L9.90626 15.4375L7.65626 13.1875C7.45836 12.9791 7.12501 12.974 6.92189 13.1771C6.71354 13.375 6.70836 13.7083 6.91149 13.9115C6.91671 13.9167 6.92189 13.9219 6.92189 13.9219L9.52604 16.526C9.72394 16.7239 10.0469 16.7291 10.25 16.5364L18.0625 9.24476C18.2709 9.04686 18.2865 8.71873 18.0885 8.51038C17.8906 8.30208 17.5625 8.29163 17.3542 8.48958Z" fill="#061229"/>
<path d="M12.5 0C5.60938 0 0 5.60938 0 12.5C0 19.3906 5.60938 25 12.5 25C19.3906 25 25 19.3906 25 12.5C25 5.60938 19.3906 0 12.5 0ZM12.5 23.9583C6.18228 23.9583 1.04165 18.8177 1.04165 12.5C1.04165 6.18228 6.18228 1.04165 12.5 1.04165C18.8177 1.04165 23.9583 6.18228 23.9583 12.5C23.9583 18.8177 18.8177 23.9583 12.5 23.9583Z" fill="#061229"/>
</svg>
