<svg width="25" height="32" viewBox="0 0 25 32" fill="none" xmlns="http://www.w3.org/2000/svg">
<path d="M16.1939 28.022C16.0098 27.8398 15.7127 27.8413 15.5303 28.0253C14.0989 29.4699 12.8881 30.4956 12.3576 30.9296C11.5476 30.2668 9.15019 28.2218 6.77319 25.385C5.07169 23.3543 3.71744 21.3251 2.748 19.3534C1.54738 16.9115 0.938563 14.5545 0.938563 12.3479C0.938563 8.88863 2.4835 5.65463 5.17731 3.47519C5.37869 3.31219 5.40981 3.01694 5.24669 2.81569C5.08356 2.61444 4.78806 2.58338 4.58669 2.74632C1.67175 5.10469 0 8.60432 0 12.3479C0 14.6991 0.641125 17.1951 1.90556 19.7669C2.90819 21.8061 4.30381 23.8988 6.0535 25.987C9.02394 29.532 11.9473 31.8068 12.0703 31.9019C12.1548 31.9673 12.2561 32 12.3574 32C12.4588 32 12.5601 31.9673 12.6446 31.9019C12.7084 31.8526 14.2291 30.6714 16.1972 28.6851C16.3796 28.5011 16.3781 28.2043 16.1939 28.022Z" fill="#171A27"/>
<path d="M12.3576 0C10.1968 0 8.0702 0.565562 6.20751 1.63556C5.98282 1.76456 5.90539 2.05125 6.03457 2.27575C6.1637 2.50025 6.45051 2.57756 6.67526 2.44856C8.39582 1.46019 10.3608 0.937813 12.3576 0.937813C18.654 0.937813 23.7766 6.05644 23.7766 12.3481C23.7766 17.8593 20.0075 23.1623 16.8456 26.6404C16.6714 26.8321 16.6856 27.1287 16.8775 27.3028C16.9674 27.3844 17.0803 27.4246 17.1928 27.4246C17.3204 27.4246 17.4477 27.3729 17.5403 27.271C20.8134 23.6704 24.7151 18.1587 24.7151 12.3482C24.7151 5.53931 19.1715 0 12.3576 0Z" fill="#171A27"/>
<path d="M12.3575 3.76172C7.61946 3.76172 3.76465 7.61347 3.76465 12.348C3.76465 17.0825 7.61934 20.9343 12.3575 20.9343C12.6166 20.9343 12.8268 20.7243 12.8268 20.4654C12.8268 20.2065 12.6166 19.9965 12.3575 19.9965C8.1369 19.9965 4.70315 16.5655 4.70315 12.348C4.70315 8.1306 8.13684 4.69953 12.3575 4.69953C16.5781 4.69953 20.0118 8.1306 20.0118 12.348C20.0118 14.1052 19.4321 15.7572 18.3353 17.1256C17.2701 18.4545 15.7761 19.4011 14.1283 19.7908C13.8762 19.8505 13.7201 20.1032 13.7798 20.3552C13.8395 20.6072 14.0925 20.7628 14.3446 20.7035C16.195 20.2657 17.8724 19.2032 19.0678 17.7118C20.2818 16.1972 20.9504 14.2923 20.9504 12.348C20.9503 7.61347 17.0956 3.76172 12.3575 3.76172Z" fill="#ED7161"/>
<path d="M18.3661 11.716L12.6783 6.39702C12.4979 6.22834 12.2174 6.22834 12.037 6.39702L6.34931 11.716C6.20868 11.8475 6.16275 12.0516 6.2335 12.2306C6.30425 12.4096 6.47731 12.5273 6.66994 12.5273H7.86862V16.4226C7.86862 16.6816 8.07875 16.8915 8.33787 16.8915H11.2423C11.5014 16.8915 11.7115 16.6816 11.7115 16.4226V14.229H13.0038V16.4226C13.0038 16.6816 13.2138 16.8915 13.473 16.8915H16.3774C16.6365 16.8915 16.8466 16.6816 16.8466 16.4226V12.5273H18.0453C18.2379 12.5273 18.411 12.4096 18.4818 12.2306C18.5526 12.0516 18.5067 11.8475 18.3661 11.716ZM16.3774 11.5895C16.1183 11.5895 15.9082 11.7994 15.9082 12.0583V15.9537H13.9423V13.76C13.9423 13.5011 13.7322 13.2911 13.4731 13.2911H11.2423C10.9831 13.2911 10.773 13.5011 10.773 13.76V15.9537H8.80712V12.0583C8.80712 11.7994 8.597 11.5895 8.33787 11.5895H7.85806L12.3576 7.38159L16.8573 11.5895H16.3774Z" fill="#171A27"/>
</svg>
